<svg width="27" height="30" viewBox="0 0 27 30" fill="none" xmlns="http://www.w3.org/2000/svg">
<path d="M13.4287 15.5783C17.7145 15.5783 21.2178 12.0749 21.2178 7.78913C21.2178 3.50339 17.7145 0 13.4287 0C9.14297 0 5.63965 3.50339 5.63965 7.78913C5.63965 12.0749 9.14303 15.5783 13.4287 15.5783Z" fill="url(#paint0_linear_107_4926)"/>
<path d="M26.7962 21.8028C26.5921 21.2926 26.3201 20.8164 26.014 20.3742C24.4493 18.0612 22.0344 16.5306 19.3133 16.1565C18.9732 16.1225 18.599 16.1905 18.3269 16.3946C16.8983 17.449 15.1977 17.9932 13.4289 17.9932C11.6602 17.9932 9.95952 17.449 8.53094 16.3946C8.25881 16.1905 7.88465 16.0885 7.54455 16.1565C4.82346 16.5306 2.3745 18.0612 0.843898 20.3742C0.537778 20.8164 0.265643 21.3266 0.0616065 21.8028C-0.0404118 22.0069 -0.00642744 22.245 0.0955908 22.4491C0.367726 22.9252 0.70783 23.4015 1.01395 23.8096C1.49012 24.4559 2.00034 25.0341 2.5786 25.5783C3.05477 26.0545 3.59898 26.4967 4.14325 26.9388C6.83029 28.9457 10.0616 30 13.3949 30C16.7283 30 19.9596 28.9456 22.6466 26.9388C23.1908 26.5307 23.735 26.0545 24.2113 25.5783C24.7555 25.0341 25.2997 24.4558 25.7759 23.8096C26.116 23.3674 26.4222 22.9252 26.6943 22.4491C26.8643 22.245 26.8983 22.0068 26.7962 21.8028Z" fill="url(#paint1_linear_107_4926)"/>
<defs>
<linearGradient id="paint0_linear_107_4926" x1="4.75452" y1="15.5783" x2="4.75452" y2="0" gradientUnits="userSpaceOnUse">
<stop stop-color="#1275DE"/>
<stop offset="1" stop-color="#289AF7"/>
</linearGradient>
<linearGradient id="paint1_linear_107_4926" x1="-1.52578" y1="30" x2="-1.52578" y2="16.1355" gradientUnits="userSpaceOnUse">
<stop stop-color="#1275DE"/>
<stop offset="1" stop-color="#289AF7"/>
</linearGradient>
</defs>
</svg>
 