<svg width="16" height="20" viewBox="0 0 16 20" fill="none" xmlns="http://www.w3.org/2000/svg">
<path d="M14.7751 8.98707C14.7638 8.96801 14.752 8.94918 14.7388 8.93105L8.57411 0.295781C8.44185 0.110117 8.22775 0 7.99974 0C7.7715 0 7.55763 0.110117 7.4254 0.295781L1.26068 8.93105C1.24798 8.94918 1.23575 8.96777 1.22466 8.98707C-0.041706 11.1713 -0.0214717 13.8226 1.279 16.0798C2.67197 18.4979 5.24728 20 7.99974 20C10.7522 20 13.3275 18.4977 14.7207 16.0795C16.0209 13.8226 16.0414 11.1711 14.7751 8.98707ZM13.4974 15.3748C12.3558 17.357 10.2492 18.5882 7.99974 18.5882C5.75056 18.5882 3.64396 17.3572 2.50208 15.3751C1.44677 13.5431 1.42068 11.4852 2.42939 9.72332C5.15886 5.90003 10.8407 5.90019 13.5701 9.72352C14.5786 11.4854 14.5527 13.5433 13.4974 15.3748Z" fill="url(#paint0_linear_101_285)"/>
<defs>
<linearGradient id="paint0_linear_101_285" x1="-0.587157" y1="20" x2="-0.587157" y2="0" gradientUnits="userSpaceOnUse">
<stop stop-color="#004186"/>
<stop offset="1" stop-color="#289AF7"/>
</linearGradient>
</defs>
</svg>
