<svg width="35" height="35" viewBox="0 0 35 35" fill="none" xmlns="http://www.w3.org/2000/svg">
<path d="M11.8945 16.4062H4.51172C2.02392 16.4062 0 14.3823 0 11.8945V4.51172C0 2.02392 2.02392 0 4.51172 0H11.8945C14.3823 0 16.4062 2.02392 16.4062 4.51172V11.8945C16.4062 14.3823 14.3823 16.4062 11.8945 16.4062ZM4.51172 2.1875C3.23012 2.1875 2.1875 3.23012 2.1875 4.51172V11.8945C2.1875 13.1761 3.23012 14.2188 4.51172 14.2188H11.8945C13.1761 14.2188 14.2188 13.1761 14.2188 11.8945V4.51172C14.2188 3.23012 13.1761 2.1875 11.8945 2.1875H4.51172Z" fill="url(#paint0_linear_107_4981)"/>
<path d="M30.4883 16.4062H23.1055C20.6177 16.4062 18.5938 14.3823 18.5938 11.8945V4.51172C18.5938 2.02392 20.6177 0 23.1055 0H30.4883C32.9761 0 35 2.02392 35 4.51172V11.8945C35 14.3823 32.9761 16.4062 30.4883 16.4062ZM23.1055 2.1875C21.8239 2.1875 20.7812 3.23012 20.7812 4.51172V11.8945C20.7812 13.1761 21.8239 14.2188 23.1055 14.2188H30.4883C31.7699 14.2188 32.8125 13.1761 32.8125 11.8945V4.51172C32.8125 3.23012 31.7699 2.1875 30.4883 2.1875H23.1055Z" fill="url(#paint1_linear_107_4981)"/>
<path d="M26.7969 35C22.2737 35 18.5938 31.3201 18.5938 26.7969C18.5938 22.2737 22.2737 18.5938 26.7969 18.5938C31.3201 18.5938 35 22.2737 35 26.7969C35 31.3201 31.3201 35 26.7969 35ZM26.7969 20.7812C23.4799 20.7812 20.7812 23.4799 20.7812 26.7969C20.7812 30.1139 23.4799 32.8125 26.7969 32.8125C30.1139 32.8125 32.8125 30.1139 32.8125 26.7969C32.8125 23.4799 30.1139 20.7812 26.7969 20.7812Z" fill="url(#paint2_linear_107_4981)"/>
<path d="M11.8945 35H4.51172C2.02392 35 0 32.9761 0 30.4883V23.1055C0 20.6177 2.02392 18.5938 4.51172 18.5938H11.8945C14.3823 18.5938 16.4062 20.6177 16.4062 23.1055V30.4883C16.4062 32.9761 14.3823 35 11.8945 35ZM4.51172 20.7812C3.23012 20.7812 2.1875 21.8239 2.1875 23.1055V30.4883C2.1875 31.7699 3.23012 32.8125 4.51172 32.8125H11.8945C13.1761 32.8125 14.2188 31.7699 14.2188 30.4883V23.1055C14.2188 21.8239 13.1761 20.7812 11.8945 20.7812H4.51172Z" fill="url(#paint3_linear_107_4981)"/>
<defs>
<linearGradient id="paint0_linear_107_4981" x1="-1.98864" y1="35" x2="-1.98864" y2="0" gradientUnits="userSpaceOnUse">
<stop stop-color="#1275DE"/>
<stop offset="1" stop-color="#289AF7"/>
</linearGradient>
<linearGradient id="paint1_linear_107_4981" x1="-1.98864" y1="35" x2="-1.98864" y2="0" gradientUnits="userSpaceOnUse">
<stop stop-color="#1275DE"/>
<stop offset="1" stop-color="#289AF7"/>
</linearGradient>
<linearGradient id="paint2_linear_107_4981" x1="-1.98864" y1="35" x2="-1.98864" y2="0" gradientUnits="userSpaceOnUse">
<stop stop-color="#1275DE"/>
<stop offset="1" stop-color="#289AF7"/>
</linearGradient>
<linearGradient id="paint3_linear_107_4981" x1="-1.98864" y1="35" x2="-1.98864" y2="0" gradientUnits="userSpaceOnUse">
<stop stop-color="#1275DE"/>
<stop offset="1" stop-color="#289AF7"/>
</linearGradient>
</defs>
</svg>
