<svg width="30" height="30" viewBox="0 0 30 30" fill="none" xmlns="http://www.w3.org/2000/svg">
<path d="M17.6502 11.3525L15.7883 7.57975C15.6402 7.27975 15.3347 7.08984 15.0002 7.08984C14.6657 7.08984 14.3601 7.2798 14.212 7.57975L12.3501 11.3525L8.18665 11.9575C7.8556 12.0056 7.5805 12.2375 7.47714 12.5556C7.37372 12.8738 7.45997 13.2231 7.6995 13.4566L10.7122 16.3932L10.001 20.5399C9.94447 20.8696 10.08 21.2029 10.3506 21.3995C10.6213 21.5961 10.9801 21.6221 11.2762 21.4664L15.0002 19.5086L18.724 21.4663C19.0219 21.6229 19.3806 21.5948 19.6496 21.3994C19.9203 21.2027 20.0559 20.8695 19.9993 20.5397L19.2881 16.3931L22.3008 13.4565C22.5403 13.223 22.6266 12.8737 22.5231 12.5555C22.4198 12.2374 22.1447 12.0054 21.8136 11.9573L17.6502 11.3525ZM17.7302 15.457C17.5231 15.6589 17.4286 15.9498 17.4775 16.2349L17.9657 19.0817L15.4092 17.7377C15.2811 17.6704 15.1406 17.6367 15.0002 17.6367C14.8597 17.6367 14.7192 17.6704 14.5912 17.7377L12.0346 19.0817L12.5229 16.2349C12.5718 15.9498 12.4772 15.6589 12.2701 15.457L10.2018 13.4409L13.0601 13.0256C13.3464 12.984 13.5939 12.8041 13.7219 12.5447L15.0002 9.95467L16.2785 12.5447C16.4065 12.8041 16.654 12.984 16.9402 13.0256L19.7985 13.4409L17.7302 15.457Z" fill="url(#paint0_linear_107_4910)"/>
<path d="M15 0C6.74068 0 0 6.74121 0 15C0 23.2593 6.74121 30 15 30C23.2593 30 30 23.2588 30 15C30 6.74068 23.2588 0 15 0ZM15 28.2422C7.69822 28.2422 1.75781 22.3018 1.75781 15C1.75781 7.69822 7.69822 1.75781 15 1.75781C22.3018 1.75781 28.2422 7.69822 28.2422 15C28.2422 22.3018 22.3018 28.2422 15 28.2422Z" fill="url(#paint1_linear_107_4910)"/>
<path d="M15 3.51562C8.69309 3.51562 3.51562 8.69256 3.51562 15C3.51562 21.3069 8.69256 26.4844 15 26.4844C21.3069 26.4844 26.4844 21.3074 26.4844 15C26.4844 8.69309 21.3074 3.51562 15 3.51562ZM15 24.7266C9.63674 24.7266 5.27344 20.3633 5.27344 15C5.27344 9.63674 9.63674 5.27344 15 5.27344C20.3633 5.27344 24.7266 9.63674 24.7266 15C24.7266 20.3633 20.3633 24.7266 15 24.7266Z" fill="url(#paint2_linear_107_4910)"/>
<defs>
<linearGradient id="paint0_linear_107_4910" x1="6.5743" y1="21.5674" x2="6.5743" y2="7.08984" gradientUnits="userSpaceOnUse">
<stop stop-color="#1275DE"/>
<stop offset="1" stop-color="#289AF7"/>
</linearGradient>
<linearGradient id="paint1_linear_107_4910" x1="-1.70455" y1="30" x2="-1.70455" y2="0" gradientUnits="userSpaceOnUse">
<stop stop-color="#1275DE"/>
<stop offset="1" stop-color="#289AF7"/>
</linearGradient>
<linearGradient id="paint2_linear_107_4910" x1="2.21058" y1="26.4844" x2="2.21058" y2="3.51562" gradientUnits="userSpaceOnUse">
<stop stop-color="#1275DE"/>
<stop offset="1" stop-color="#289AF7"/>
</linearGradient>
</defs>
</svg>
