<svg width="45" height="45" viewBox="0 0 45 45" fill="none" xmlns="http://www.w3.org/2000/svg">
<path d="M22.5 42.8906C33.7614 42.8906 42.8906 33.7614 42.8906 22.5C42.8906 11.2386 33.7614 2.10938 22.5 2.10938C11.2386 2.10938 2.10938 11.2386 2.10938 22.5C2.10938 33.7614 11.2386 42.8906 22.5 42.8906Z" fill="#D3E4F8"/>
<path d="M22.5 40.0781C32.2081 40.0781 40.0781 32.2081 40.0781 22.5C40.0781 12.7919 32.2081 4.92188 22.5 4.92188C12.7919 4.92188 4.92188 12.7919 4.92188 22.5C4.92188 32.2081 12.7919 40.0781 22.5 40.0781Z" fill="#0367DD"/>
<path d="M22.6023 2.10938C22.8301 3.03833 22.9922 3.98214 23.0875 4.93383C26.3338 5.04202 29.4867 6.04756 32.1962 7.83887C34.9057 9.63017 37.0659 12.1372 38.437 15.0817C39.8082 18.0262 40.3367 21.293 39.9639 24.5197C39.5912 27.7463 38.3316 30.8066 36.3252 33.3608C34.3187 35.9151 31.6437 37.8635 28.5971 38.9898C25.5505 40.116 22.2515 40.3761 19.066 39.7412C15.8806 39.1063 12.9333 37.6012 10.5513 35.393C8.16936 33.1847 6.44581 30.3597 5.57195 27.2313C4.65756 27.3565 3.7358 27.4201 2.81289 27.4219C2.77844 27.4219 2.74258 27.4219 2.71094 27.4219C3.63234 31.126 5.57494 34.4972 8.31772 37.1517C11.0605 39.8063 14.4933 41.6377 18.2256 42.4376C21.9578 43.2375 25.8397 42.9737 29.4294 41.6763C33.0192 40.3789 36.1727 38.0999 38.5312 35.0987C40.8896 32.0975 42.3583 28.4945 42.7701 24.6998C43.182 20.905 42.5204 17.0709 40.8607 13.6336C39.201 10.1963 36.6099 7.29387 33.382 5.25654C30.1542 3.21921 26.4193 2.1288 22.6023 2.10938Z" fill="#3992FC"/>
<path d="M22.4997 40.0781C27.0895 40.0461 31.4847 38.2201 34.746 34.9903C38.0073 31.7606 39.876 27.3833 39.9527 22.7941C40.0294 18.2048 38.308 13.7676 35.1564 10.4307C32.0048 7.09381 27.673 5.12199 23.0868 4.93665C23.1614 5.6324 23.2001 6.33152 23.2029 7.03126C23.2021 11.9607 21.4157 16.723 18.1741 20.4368C14.9326 24.1506 10.4554 26.5643 5.57129 27.2313C6.60409 30.9268 8.81773 34.1829 11.8743 36.5025C14.9309 38.8222 18.6626 40.0779 22.4997 40.0781Z" fill="#0356B9"/>
<path d="M31.6199 25.3125L22.5004 28.807L13.3809 25.3125L22.5004 35.8383L31.6199 25.3125Z" fill="#F4F9FF"/>
<path d="M30.3119 22.9992L22.5002 9.16174L14.6885 22.9992L22.5002 25.9946L30.3119 22.9992Z" fill="#F4F9FF"/>
</svg>
