<svg width="30" height="30" viewBox="0 0 30 30" fill="none" xmlns="http://www.w3.org/2000/svg">
<g clip-path="url(#clip0_107_4919)">
<path d="M23.7862 7.03383C20.5643 7.03383 17.913 9.52383 17.6573 12.774C17.0238 13.2092 16.4283 13.7034 15.8786 14.2514V9.66968C15.8786 7.24745 17.8495 5.27659 20.2717 5.27659H24.6648V4.39797C24.6648 1.97574 22.6939 0.00488281 20.2717 0.00488281C17.8495 0.00488281 15.8786 1.97574 15.8786 4.39797C15.8786 4.69659 15.9087 4.99174 15.967 5.28087C15.3224 5.91283 14.8163 6.68572 14.4983 7.54887C14.3526 7.3701 14.1975 7.19936 14.033 7.0381C14.0913 6.74892 14.1214 6.45376 14.1214 6.15521C14.1214 3.73298 12.1505 1.76212 9.72829 1.76212C7.30606 1.76212 5.3352 3.73298 5.3352 6.15521V7.03383H9.72829C12.1505 7.03383 14.1214 9.00468 14.1214 11.4269V19.523C13.5742 18.9774 12.9817 18.485 12.3513 18.0517C12.1419 14.8478 9.46916 12.3055 6.21382 12.3055C3.61141 12.3055 1.28015 13.9529 0.413595 16.406L0 17.5772H5.14987C8.7354 17.5772 12.069 19.3168 14.1214 22.2436V24.7569C11.7785 24.9376 10.438 25.8299 9.24095 26.6282C7.94534 27.4922 6.82645 28.2378 4.45658 28.2378H1.82073V29.995H28.1793V28.2378H25.5434C23.1736 28.2378 22.0547 27.4922 20.759 26.6282C19.562 25.8299 18.2214 24.9376 15.8786 24.7569V16.9719C17.931 14.0451 21.2646 12.3055 24.8501 12.3055H30L29.5864 11.1343C28.7199 8.68124 26.3886 7.03383 23.7862 7.03383Z" fill="url(#paint0_linear_107_4919)"/>
</g>
<defs>
<linearGradient id="paint0_linear_107_4919" x1="-1.70455" y1="29.995" x2="-1.70455" y2="0.00488281" gradientUnits="userSpaceOnUse">
<stop stop-color="#1275DE"/>
<stop offset="1" stop-color="#289AF7"/>
</linearGradient>
<clipPath id="clip0_107_4919">
<rect width="30" height="30" fill="white"/>
</clipPath>
</defs>
</svg>
