<svg width="30" height="30" viewBox="0 0 30 30" fill="none" xmlns="http://www.w3.org/2000/svg">
<path d="M19.8587 5.7208L15.4399 10.1395C15.1959 10.3836 15.1959 10.7793 15.4399 11.0233L18.9749 14.5583C19.219 14.8023 19.6146 14.8023 19.8587 14.5583L24.2774 10.1395C24.5215 9.89551 24.5215 9.49984 24.2774 9.2558L20.7424 5.7208C20.4984 5.47675 20.1027 5.47675 19.8587 5.7208Z" fill="url(#paint0_linear_107_4937)"/>
<path d="M18.4873 5.32645C14.1707 1.56489 10.8057 1.13789 10.6505 1.12051C10.5218 1.10623 10.3918 1.13229 10.2785 1.19508C10.1652 1.25787 10.0743 1.3543 10.0182 1.47104C9.96211 1.58777 9.94367 1.71904 9.96543 1.84671C9.98719 1.97438 10.0481 2.09214 10.1397 2.1837L15.8849 7.92895L18.4873 5.32645Z" fill="url(#paint1_linear_107_4937)"/>
<path d="M28.8793 19.35C28.862 19.1947 28.435 15.8301 24.6742 11.514L22.0718 14.1165L27.8162 19.8609C27.9077 19.9524 28.0255 20.0133 28.1531 20.0351C28.2808 20.0568 28.4121 20.0384 28.5288 19.9823C28.6456 19.9262 28.742 19.8353 28.8048 19.722C28.8676 19.6087 28.8936 19.4788 28.8793 19.35Z" fill="url(#paint2_linear_107_4937)"/>
<path d="M15.0007 12.3484L1.30024 26.0486C1.18303 26.1658 1.11719 26.3248 1.11719 26.4905C1.11719 26.6563 1.18303 26.8152 1.30024 26.9325L3.06824 28.7C3.18545 28.8172 3.34442 28.8831 3.51018 28.8831C3.67594 28.8831 3.83491 28.8172 3.95212 28.7L17.6523 15L15.0007 12.3484Z" fill="url(#paint3_linear_107_4937)"/>
<defs>
<linearGradient id="paint0_linear_107_4937" x1="19.1155" y1="15.3014" x2="14.6968" y2="10.8827" gradientUnits="userSpaceOnUse">
<stop stop-color="#1275DE"/>
<stop offset="1" stop-color="#289AF7"/>
</linearGradient>
<linearGradient id="paint1_linear_107_4937" x1="9.47184" y1="7.92895" x2="9.47184" y2="1.1167" gradientUnits="userSpaceOnUse">
<stop stop-color="#1275DE"/>
<stop offset="1" stop-color="#289AF7"/>
</linearGradient>
<linearGradient id="paint2_linear_107_4937" x1="21.6848" y1="20.044" x2="21.6848" y2="11.514" gradientUnits="userSpaceOnUse">
<stop stop-color="#1275DE"/>
<stop offset="1" stop-color="#289AF7"/>
</linearGradient>
<linearGradient id="paint3_linear_107_4937" x1="0.177692" y1="28.8831" x2="0.177692" y2="12.3484" gradientUnits="userSpaceOnUse">
<stop stop-color="#1275DE"/>
<stop offset="1" stop-color="#289AF7"/>
</linearGradient>
</defs>
</svg>
     