<svg width="30" height="30" viewBox="0 0 30 30" fill="none" xmlns="http://www.w3.org/2000/svg">
<path d="M28.7502 14.9999C28.7503 14.7677 28.6857 14.5399 28.5636 14.3423C28.4415 14.1447 28.2667 13.985 28.0589 13.8812L24.0452 11.8749L28.0589 9.87495C28.267 9.77128 28.4419 9.61167 28.5643 9.41404C28.6866 9.21642 28.7514 8.98861 28.7514 8.7562C28.7514 8.52379 28.6866 8.29598 28.5643 8.09835C28.4419 7.90073 28.267 7.74112 28.0589 7.63745L15.5589 1.38745C15.3854 1.30075 15.1941 1.25562 15.0002 1.25562C14.8062 1.25562 14.6149 1.30075 14.4414 1.38745L1.94144 7.63745C1.73343 7.74112 1.55844 7.90073 1.43613 8.09835C1.31382 8.29598 1.24902 8.52379 1.24902 8.7562C1.24902 8.98861 1.31382 9.21642 1.43613 9.41404C1.55844 9.61167 1.73343 9.77128 1.94144 9.87495L5.95519 11.8749L1.94144 13.8812C1.73343 13.9849 1.55844 14.1445 1.43613 14.3421C1.31382 14.5397 1.24902 14.7675 1.24902 14.9999C1.24902 15.2324 1.31382 15.4602 1.43613 15.6578C1.55844 15.8554 1.73343 16.015 1.94144 16.1187L5.95519 18.1249L1.94144 20.1312C1.73343 20.2349 1.55844 20.3945 1.43613 20.5921C1.31382 20.7897 1.24902 21.0175 1.24902 21.2499C1.24902 21.4824 1.31382 21.7102 1.43613 21.9078C1.55844 22.1054 1.73343 22.265 1.94144 22.3687L14.4414 28.6187C14.6149 28.7054 14.8062 28.7505 15.0002 28.7505C15.1941 28.7505 15.3854 28.7054 15.5589 28.6187L28.0589 22.3687C28.267 22.265 28.4419 22.1054 28.5643 21.9078C28.6866 21.7102 28.7514 21.4824 28.7514 21.2499C28.7514 21.0175 28.6866 20.7897 28.5643 20.5921C28.4419 20.3945 28.267 20.2349 28.0589 20.1312L24.0452 18.1249L28.0589 16.1249C28.2677 16.0206 28.4431 15.86 28.5652 15.6612C28.6874 15.4623 28.7515 15.2333 28.7502 14.9999ZM24.7052 21.2499L15.0002 26.1024L5.29519 21.2499L8.75019 19.5224L14.4414 22.3749C14.6149 22.4616 14.8062 22.5068 15.0002 22.5068C15.1941 22.5068 15.3854 22.4616 15.5589 22.3749L21.2502 19.5224L24.7052 21.2499ZM15.0002 19.8524L5.29519 14.9999L8.75019 13.2724L14.4414 16.1249C14.6149 16.2116 14.8062 16.2568 15.0002 16.2568C15.1941 16.2568 15.3854 16.2116 15.5589 16.1249L21.2502 13.2724L24.7052 14.9999L15.0002 19.8524Z" fill="url(#paint0_linear_107_4949)"/>
<defs>
<linearGradient id="paint0_linear_107_4949" x1="-0.31361" y1="28.7505" x2="-0.31361" y2="1.25562" gradientUnits="userSpaceOnUse">
<stop stop-color="#1275DE"/>
<stop offset="1" stop-color="#289AF7"/>
</linearGradient>
</defs>
</svg>
