<svg xmlns="http://www.w3.org/2000/svg" xmlns:xlink="http://www.w3.org/1999/xlink" width="81.73398757897917" zoomAndPan="magnify" height="67" preserveAspectRatio="xMidYMid meet" version="1.0"><rect id="backgroundrect" width="100%" height="100%" x="0" y="0" fill="none" stroke="none" style="" class=""/><defs><g id="svg_1"/><clipPath id="085dc0fbe0"><path d="M 77 162 L 128 162 L 128 206 L 77 206 Z M 77 162 " clip-rule="nonzero" id="svg_2"/></clipPath><clipPath id="889bac2627"><path d="M 137.957031 187.5 L 102.425781 223.03125 L 66.890625 187.5 L 102.425781 151.964844 Z M 137.957031 187.5 " clip-rule="nonzero" id="svg_3"/></clipPath><clipPath id="7048c80857"><path d="M 137.957031 187.5 L 102.425781 223.03125 L 66.890625 187.5 L 102.425781 151.964844 Z M 137.957031 187.5 " clip-rule="nonzero" id="svg_4"/></clipPath><clipPath id="7df353198f"><path d="M 93 177 L 112 177 L 112 197 L 93 197 Z M 93 177 " clip-rule="nonzero" id="svg_5"/></clipPath><clipPath id="0770df2b77"><path d="M 100.726562 174.199219 L 115.625 185.582031 L 104.242188 200.480469 L 89.34375 189.097656 Z M 100.726562 174.199219 " clip-rule="nonzero" id="svg_6"/></clipPath><clipPath id="d5ffb67e31"><path d="M 100.726562 174.199219 L 115.625 185.582031 L 104.242188 200.480469 L 89.34375 189.097656 Z M 100.726562 174.199219 " clip-rule="nonzero" id="svg_7"/></clipPath></defs><g class="currentLayer" style=""><title>Layer 1</title><g clip-path="url(#085dc0fbe0)" id="svg_8" class="" transform="translate(-61.57894515991211,-152.10525512695312) "><g clip-path="url(#889bac2627)" id="svg_9"><g clip-path="url(#7048c80857)" id="svg_10"><path fill="#ffffff" d="M 93.324219 197.527344 L 92.867188 197.074219 C 87.589844 191.796875 87.589844 183.214844 92.867188 177.9375 C 98.136719 172.667969 106.714844 172.664062 111.992188 177.933594 C 117.257812 183.207031 117.253906 191.785156 111.984375 197.058594 L 111.527344 197.511719 L 119.726562 205.710938 L 120.183594 205.253906 C 129.96875 195.46875 129.976562 179.535156 120.183594 169.722656 C 110.386719 159.945312 94.453125 159.953125 84.667969 169.742188 C 74.871094 179.535156 74.871094 195.476562 84.667969 205.273438 L 85.121094 205.726562 L 93.324219 197.527344 " fill-opacity="1" fill-rule="nonzero" id="svg_11"/></g></g></g><g clip-path="url(#085dc0fbe0)" class="" id="svg_48" transform="translate(-61.57894515991211,-152.10525512695312) "><g clip-path="url(#889bac2627)" id="svg_49"><g clip-path="url(#7048c80857)" id="svg_10"><path fill="#ffffff" d="M 93.324219 197.527344 L 92.867188 197.074219 C 87.589844 191.796875 87.589844 183.214844 92.867188 177.9375 C 98.136719 172.667969 106.714844 172.664062 111.992188 177.933594 C 117.257812 183.207031 117.253906 191.785156 111.984375 197.058594 L 111.527344 197.511719 L 119.726562 205.710938 L 120.183594 205.253906 C 129.96875 195.46875 129.976562 179.535156 120.183594 169.722656 C 110.386719 159.945312 94.453125 159.953125 84.667969 169.742188 C 74.871094 179.535156 74.871094 195.476562 84.667969 205.273438 L 85.121094 205.726562 L 93.324219 197.527344 " fill-opacity="1" fill-rule="nonzero" id="svg_11"/></g></g></g><g clip-path="url(#085dc0fbe0)" class="" id="svg_70" transform="translate(-61.57894515991211,-152.10525512695312) "><g clip-path="url(#889bac2627)" id="svg_71"><g clip-path="url(#7048c80857)" id="svg_10"><path fill="#ffffff" d="M 93.324219 197.527344 L 92.867188 197.074219 C 87.589844 191.796875 87.589844 183.214844 92.867188 177.9375 C 98.136719 172.667969 106.714844 172.664062 111.992188 177.933594 C 117.257812 183.207031 117.253906 191.785156 111.984375 197.058594 L 111.527344 197.511719 L 119.726562 205.710938 L 120.183594 205.253906 C 129.96875 195.46875 129.976562 179.535156 120.183594 169.722656 C 110.386719 159.945312 94.453125 159.953125 84.667969 169.742188 C 74.871094 179.535156 74.871094 195.476562 84.667969 205.273438 L 85.121094 205.726562 L 93.324219 197.527344 " fill-opacity="1" fill-rule="nonzero" id="svg_11"/></g></g></g><g clip-path="url(#7df353198f)" id="svg_12" class="" transform="translate(-61.57894515991211,-152.10525512695312) "><g clip-path="url(#0770df2b77)" id="svg_13"><g clip-path="url(#d5ffb67e31)" id="svg_14"><path fill="#ffffff" d="M 109.933594 193.03125 C 106.789062 197.144531 100.90625 197.933594 96.792969 194.789062 C 94.488281 193.027344 93.230469 190.410156 93.121094 187.722656 C 93.035156 185.71875 93.597656 183.671875 94.839844 181.921875 C 94.902344 181.832031 94.972656 181.738281 95.039062 181.648438 C 98.179688 177.535156 104.0625 176.75 108.175781 179.890625 C 109.023438 180.539062 109.726562 181.296875 110.285156 182.136719 C 111.445312 183.871094 111.976562 185.9375 111.835938 187.984375 C 111.714844 189.753906 111.09375 191.511719 109.933594 193.03125 " fill-opacity="1" fill-rule="nonzero" id="svg_15"/></g></g></g><g clip-path="url(#7df353198f)" class="" id="svg_68" transform="translate(-61.57894515991211,-152.10525512695312) "><g clip-path="url(#0770df2b77)" id="svg_69"><g clip-path="url(#d5ffb67e31)" id="svg_14"><path fill="#ffffff" d="M 109.933594 193.03125 C 106.789062 197.144531 100.90625 197.933594 96.792969 194.789062 C 94.488281 193.027344 93.230469 190.410156 93.121094 187.722656 C 93.035156 185.71875 93.597656 183.671875 94.839844 181.921875 C 94.902344 181.832031 94.972656 181.738281 95.039062 181.648438 C 98.179688 177.535156 104.0625 176.75 108.175781 179.890625 C 109.023438 180.539062 109.726562 181.296875 110.285156 182.136719 C 111.445312 183.871094 111.976562 185.9375 111.835938 187.984375 C 111.714844 189.753906 111.09375 191.511719 109.933594 193.03125 " fill-opacity="1" fill-rule="nonzero" id="svg_15"/></g></g></g></g></svg>