<svg xmlns="http://www.w3.org/2000/svg" xmlns:xlink="http://www.w3.org/1999/xlink" width="264.94736847388776" zoomAndPan="magnify" height="67.1578945783366" preserveAspectRatio="xMidYMid meet" version="1.0"><rect id="backgroundrect" width="100%" height="100%" x="0" y="0" fill="none" stroke="none" style="" class=""/><defs><g id="svg_1"/><clipPath id="085dc0fbe0"><path d="M 77 162 L 128 162 L 128 206 L 77 206 Z M 77 162 " clip-rule="nonzero" id="svg_2"/></clipPath><clipPath id="889bac2627"><path d="M 137.957031 187.5 L 102.425781 223.03125 L 66.890625 187.5 L 102.425781 151.964844 Z M 137.957031 187.5 " clip-rule="nonzero" id="svg_3"/></clipPath><clipPath id="7048c80857"><path d="M 137.957031 187.5 L 102.425781 223.03125 L 66.890625 187.5 L 102.425781 151.964844 Z M 137.957031 187.5 " clip-rule="nonzero" id="svg_4"/></clipPath><clipPath id="7df353198f"><path d="M 93 177 L 112 177 L 112 197 L 93 197 Z M 93 177 " clip-rule="nonzero" id="svg_5"/></clipPath><clipPath id="0770df2b77"><path d="M 100.726562 174.199219 L 115.625 185.582031 L 104.242188 200.480469 L 89.34375 189.097656 Z M 100.726562 174.199219 " clip-rule="nonzero" id="svg_6"/></clipPath><clipPath id="d5ffb67e31"><path d="M 100.726562 174.199219 L 115.625 185.582031 L 104.242188 200.480469 L 89.34375 189.097656 Z M 100.726562 174.199219 " clip-rule="nonzero" id="svg_7"/></clipPath></defs><g class="currentLayer" style=""><title>Layer 1</title><g clip-path="url(#085dc0fbe0)" id="svg_8" class="" transform="translate(2.1052629947662354,-1.0526314973831177) translate(-61.57894515991211,-152.10525512695312) "><g clip-path="url(#889bac2627)" id="svg_9"><g clip-path="url(#7048c80857)" id="svg_10"><path fill="#ffffff" d="M 93.324219 197.527344 L 92.867188 197.074219 C 87.589844 191.796875 87.589844 183.214844 92.867188 177.9375 C 98.136719 172.667969 106.714844 172.664062 111.992188 177.933594 C 117.257812 183.207031 117.253906 191.785156 111.984375 197.058594 L 111.527344 197.511719 L 119.726562 205.710938 L 120.183594 205.253906 C 129.96875 195.46875 129.976562 179.535156 120.183594 169.722656 C 110.386719 159.945312 94.453125 159.953125 84.667969 169.742188 C 74.871094 179.535156 74.871094 195.476562 84.667969 205.273438 L 85.121094 205.726562 L 93.324219 197.527344 " fill-opacity="1" fill-rule="nonzero" id="svg_11"/></g></g></g><g clip-path="url(#085dc0fbe0)" class="" id="svg_48" transform="translate(2.1052629947662354,-1.0526314973831177) translate(-61.57894515991211,-152.10525512695312) "><g clip-path="url(#889bac2627)" id="svg_49"><g clip-path="url(#7048c80857)" id="svg_10"><path fill="#ffffff" d="M 93.324219 197.527344 L 92.867188 197.074219 C 87.589844 191.796875 87.589844 183.214844 92.867188 177.9375 C 98.136719 172.667969 106.714844 172.664062 111.992188 177.933594 C 117.257812 183.207031 117.253906 191.785156 111.984375 197.058594 L 111.527344 197.511719 L 119.726562 205.710938 L 120.183594 205.253906 C 129.96875 195.46875 129.976562 179.535156 120.183594 169.722656 C 110.386719 159.945312 94.453125 159.953125 84.667969 169.742188 C 74.871094 179.535156 74.871094 195.476562 84.667969 205.273438 L 85.121094 205.726562 L 93.324219 197.527344 " fill-opacity="1" fill-rule="nonzero" id="svg_11"/></g></g></g><g clip-path="url(#085dc0fbe0)" class="" id="svg_70" transform="translate(2.1052629947662354,-1.0526314973831177) translate(-61.57894515991211,-152.10525512695312) "><g clip-path="url(#889bac2627)" id="svg_71"><g clip-path="url(#7048c80857)" id="svg_10"><path fill="#ffffff" d="M 93.324219 197.527344 L 92.867188 197.074219 C 87.589844 191.796875 87.589844 183.214844 92.867188 177.9375 C 98.136719 172.667969 106.714844 172.664062 111.992188 177.933594 C 117.257812 183.207031 117.253906 191.785156 111.984375 197.058594 L 111.527344 197.511719 L 119.726562 205.710938 L 120.183594 205.253906 C 129.96875 195.46875 129.976562 179.535156 120.183594 169.722656 C 110.386719 159.945312 94.453125 159.953125 84.667969 169.742188 C 74.871094 179.535156 74.871094 195.476562 84.667969 205.273438 L 85.121094 205.726562 L 93.324219 197.527344 " fill-opacity="1" fill-rule="nonzero" id="svg_11"/></g></g></g><g fill="#ffffff" fill-opacity="1" class="" id="svg_52" transform="translate(2.1052629947662354,-1.0526314973831177) translate(-61.57894515991211,-152.10525512695312) "><g id="svg_53"><g id="svg_18"><path d="M158.7117919921875,198.82810974121094 C156.3563229921875,198.82810974121094 154.2430419921875,198.33592224121094 152.3680419921875,197.34373474121094 C150.5008539921875,196.34373474121094 149.0321039921875,194.96092274121094 147.9617919921875,193.18748474121094 C146.8992919921875,191.40623474121094 146.3680419921875,189.39842274121094 146.3680419921875,187.15623474121094 C146.3680419921875,184.90623474121094 146.8992919921875,182.89842274121094 147.9617919921875,181.12498474121094 C149.0321039921875,179.35545374121094 150.5008539921875,177.97654674121094 152.3680419921875,176.98435974121094 C154.2430419921875,175.98435974121094 156.3563229921875,175.48435974121094 158.7117919921875,175.48435974121094 C160.7625729921875,175.48435974121094 162.6102299921875,175.85154674121094 164.2586669921875,176.57810974121094 C165.9031979921875,177.29685974121094 167.2664799921875,178.34373474121094 168.3524169921875,179.71873474121094 L164.3211669921875,183.37498474121094 C162.8602299921875,181.61717274121094 161.0946039921875,180.73435974121094 159.0242919921875,180.73435974121094 C157.8055419921875,180.73435974121094 156.7196039921875,181.00779674121094 155.7742919921875,181.54685974121094 C154.8250729921875,182.07810974121094 154.0867919921875,182.83592274121094 153.5555419921875,183.81248474121094 C153.0321039921875,184.78123474121094 152.7742919921875,185.89842274121094 152.7742919921875,187.15623474121094 C152.7742919921875,188.41795374121094 153.0321039921875,189.53904674121094 153.5555419921875,190.51560974121094 C154.0867919921875,191.48435974121094 154.8250729921875,192.23435974121094 155.7742919921875,192.76560974121094 C156.7196039921875,193.29685974121094 157.8055419921875,193.56248474121094 159.0242919921875,193.56248474121094 C161.0946039921875,193.56248474121094 162.8602299921875,192.68748474121094 164.3211669921875,190.93748474121094 L168.3524169921875,194.59373474121094 C167.2664799921875,195.96092274121094 165.9031979921875,197.00779674121094 164.2586669921875,197.73435974121094 C162.6102299921875,198.46092224121094 160.7625729921875,198.82810974121094 158.7117919921875,198.82810974121094 zM158.7117919921875,198.82810974121094 " id="svg_19"/></g></g></g><g fill="#ffffff" fill-opacity="1" class="" id="svg_72" transform="translate(2.1052629947662354,-1.0526314973831177) translate(-61.57894515991211,-152.10525512695312) "><g id="svg_73"><g id="svg_18"><path d="M158.7117919921875,198.82810974121094 C156.3563229921875,198.82810974121094 154.2430419921875,198.33592224121094 152.3680419921875,197.34373474121094 C150.5008539921875,196.34373474121094 149.0321039921875,194.96092274121094 147.9617919921875,193.18748474121094 C146.8992919921875,191.40623474121094 146.3680419921875,189.39842274121094 146.3680419921875,187.15623474121094 C146.3680419921875,184.90623474121094 146.8992919921875,182.89842274121094 147.9617919921875,181.12498474121094 C149.0321039921875,179.35545374121094 150.5008539921875,177.97654674121094 152.3680419921875,176.98435974121094 C154.2430419921875,175.98435974121094 156.3563229921875,175.48435974121094 158.7117919921875,175.48435974121094 C160.7625729921875,175.48435974121094 162.6102299921875,175.85154674121094 164.2586669921875,176.57810974121094 C165.9031979921875,177.29685974121094 167.2664799921875,178.34373474121094 168.3524169921875,179.71873474121094 L164.3211669921875,183.37498474121094 C162.8602299921875,181.61717274121094 161.0946039921875,180.73435974121094 159.0242919921875,180.73435974121094 C157.8055419921875,180.73435974121094 156.7196039921875,181.00779674121094 155.7742919921875,181.54685974121094 C154.8250729921875,182.07810974121094 154.0867919921875,182.83592274121094 153.5555419921875,183.81248474121094 C153.0321039921875,184.78123474121094 152.7742919921875,185.89842274121094 152.7742919921875,187.15623474121094 C152.7742919921875,188.41795374121094 153.0321039921875,189.53904674121094 153.5555419921875,190.51560974121094 C154.0867919921875,191.48435974121094 154.8250729921875,192.23435974121094 155.7742919921875,192.76560974121094 C156.7196039921875,193.29685974121094 157.8055419921875,193.56248474121094 159.0242919921875,193.56248474121094 C161.0946039921875,193.56248474121094 162.8602299921875,192.68748474121094 164.3211669921875,190.93748474121094 L168.3524169921875,194.59373474121094 C167.2664799921875,195.96092274121094 165.9031979921875,197.00779674121094 164.2586669921875,197.73435974121094 C162.6102299921875,198.46092224121094 160.7625729921875,198.82810974121094 158.7117919921875,198.82810974121094 zM158.7117919921875,198.82810974121094 " id="svg_19"/></g></g></g><g fill="#ffffff" fill-opacity="1" class="" id="svg_74" transform="translate(2.1052629947662354,-1.0526314973831177) translate(-61.57894515991211,-152.10525512695312) "><g id="svg_75"><g id="svg_22"><path d="M179.60821533203125,198.65623474121094 C177.75274633203125,198.65623474121094 176.07696533203125,198.27732854121095 174.57696533203125,197.51560974121094 C173.08477833203125,196.74607874121094 171.91290233203125,195.67967274121094 171.06134033203125,194.31248474121094 C170.21759033203125,192.93748474121094 169.79571533203125,191.38670374121094 169.79571533203125,189.65623474121094 C169.79571533203125,187.94920374121094 170.21759033203125,186.41404674121094 171.06134033203125,185.04685974121094 C171.91290233203125,183.67185974121094 173.08087133203125,182.60545374121094 174.56134033203125,181.84373474121094 C176.04962133203125,181.08592274121094 177.73321533203125,180.70310974121094 179.60821533203125,180.70310974121094 C181.49102833203125,180.70310974121094 183.17852833203125,181.08592274121094 184.67071533203125,181.84373474121094 C186.17071533203125,182.60545374121094 187.33477833203125,183.66795374121094 188.17071533203125,185.03123474121094 C189.00274633203125,186.38670374121094 189.42071533203125,187.92967274121094 189.42071533203125,189.65623474121094 C189.42071533203125,191.38670374121094 189.00274633203125,192.93748474121094 188.17071533203125,194.31248474121094 C187.33477833203125,195.67967274121094 186.17071533203125,196.74607874121094 184.67071533203125,197.51560974121094 C183.17852833203125,198.27732854121095 181.49102833203125,198.65623474121094 179.60821533203125,198.65623474121094 zM179.60821533203125,193.82810974121094 C180.67852833203125,193.82810974121094 181.55352833203125,193.46092274121094 182.23321533203125,192.71873474121094 C182.92071533203125,191.98045374121094 183.26446533203125,190.96092274121094 183.26446533203125,189.65623474121094 C183.26446533203125,188.37498474121094 182.92071533203125,187.37107874121094 182.23321533203125,186.64060974121094 C181.55352833203125,185.91404674121094 180.67852833203125,185.54685974121094 179.60821533203125,185.54685974121094 C178.54571533203125,185.54685974121094 177.67071533203125,185.91404674121094 176.98321533203125,186.64060974121094 C176.29571533203125,187.37107874121094 175.95196533203125,188.37498474121094 175.95196533203125,189.65623474121094 C175.95196533203125,190.96092274121094 176.29571533203125,191.98045374121094 176.98321533203125,192.71873474121094 C177.67071533203125,193.46092274121094 178.54571533203125,193.82810974121094 179.60821533203125,193.82810974121094 zM179.60821533203125,193.82810974121094 " id="svg_23"/></g></g></g><g fill="#ffffff" fill-opacity="1" class="" id="svg_76" transform="translate(2.1052629947662354,-1.0526314973831177) translate(-61.57894515991211,-152.10525512695312) "><g id="svg_77"><g id="svg_26"><path d="M192.2430419921875,180.99998474121094 L198.3367919921875,180.99998474121094 L198.3367919921875,198.37498474121094 L192.2430419921875,198.37498474121094 zM195.2899169921875,179.07810974121094 C194.1844479921875,179.07810974121094 193.2899169921875,178.77342274121094 192.6024169921875,178.15623474121094 C191.9149169921875,177.53123474121094 191.5711669921875,176.75779674121094 191.5711669921875,175.82810974121094 C191.5711669921875,174.91404674121094 191.9149169921875,174.14842274121094 192.6024169921875,173.53123474121094 C193.2899169921875,172.90623474121094 194.1844479921875,172.59373474121094 195.2899169921875,172.59373474121094 C196.4031979921875,172.59373474121094 197.2977289921875,172.89060974121094 197.9774169921875,173.48435974121094 C198.6649169921875,174.07029674121094 199.0086669921875,174.82029674121094 199.0086669921875,175.73435974121094 C199.0086669921875,176.70310974121094 198.6649169921875,177.50779674121094 197.9774169921875,178.14060974121094 C197.2977289921875,178.76560974121094 196.4031979921875,179.07810974121094 195.2899169921875,179.07810974121094 zM195.2899169921875,179.07810974121094 " id="svg_27"/></g></g></g><g fill="#ffffff" fill-opacity="1" class="" id="svg_78" transform="translate(2.1052629947662354,-1.0526314973831177) translate(-61.57894515991211,-152.10525512695312) "><g id="svg_79"><g id="svg_30"><path d="M213.606689453125,180.70310974121094 C215.762939453125,180.70310974121094 217.497314453125,181.35154674121094 218.809814453125,182.64060974121094 C220.122314453125,183.92185974121094 220.778564453125,185.85545374121094 220.778564453125,188.43748474121094 L220.778564453125,198.37498474121094 L214.684814453125,198.37498474121094 L214.684814453125,189.42185974121094 C214.684814453125,187.05857874121094 213.735595453125,185.87498474121094 211.841064453125,185.87498474121094 C210.786377453125,185.87498474121094 209.942627453125,186.21873474121094 209.309814453125,186.90623474121094 C208.684814453125,187.58592274121094 208.372314453125,188.60545374121094 208.372314453125,189.96873474121094 L208.372314453125,198.37498474121094 L202.278564453125,198.37498474121094 L202.278564453125,180.99998474121094 L208.091064453125,180.99998474121094 L208.091064453125,182.89060974121094 C208.766845453125,182.18357874121094 209.575439453125,181.64060974121094 210.512939453125,181.26560974121094 C211.458251453125,180.89060974121094 212.489501453125,180.70310974121094 213.606689453125,180.70310974121094 zM213.606689453125,180.70310974121094 " id="svg_31"/></g></g></g><g fill="#ffffff" fill-opacity="1" class="" id="svg_80" transform="translate(2.1052629947662354,-1.0526314973831177) translate(-61.57894515991211,-152.10525512695312) "><g id="svg_81"><g id="svg_34"><path d="M236.07838439941406,198.82810974121094 C233.72291539941406,198.82810974121094 231.60963439941406,198.33592224121094 229.73463439941406,197.34373474121094 C227.86744639941406,196.34373474121094 226.39869639941406,194.96092274121094 225.32838439941406,193.18748474121094 C224.26588439941406,191.40623474121094 223.73463439941406,189.39842274121094 223.73463439941406,187.15623474121094 C223.73463439941406,184.90623474121094 224.26588439941406,182.89842274121094 225.32838439941406,181.12498474121094 C226.39869639941406,179.35545374121094 227.86744639941406,177.97654674121094 229.73463439941406,176.98435974121094 C231.60963439941406,175.98435974121094 233.72291539941406,175.48435974121094 236.07838439941406,175.48435974121094 C238.12916539941406,175.48435974121094 239.97682239941406,175.85154674121094 241.62525939941406,176.57810974121094 C243.26979039941406,177.29685974121094 244.63307239941406,178.34373474121094 245.71900939941406,179.71873474121094 L241.68775939941406,183.37498474121094 C240.22682239941406,181.61717274121094 238.46119639941406,180.73435974121094 236.39088439941406,180.73435974121094 C235.17213439941406,180.73435974121094 234.08619639941406,181.00779674121094 233.14088439941406,181.54685974121094 C232.19166539941406,182.07810974121094 231.45338439941406,182.83592274121094 230.92213439941406,183.81248474121094 C230.39869639941406,184.78123474121094 230.14088439941406,185.89842274121094 230.14088439941406,187.15623474121094 C230.14088439941406,188.41795374121094 230.39869639941406,189.53904674121094 230.92213439941406,190.51560974121094 C231.45338439941406,191.48435974121094 232.19166539941406,192.23435974121094 233.14088439941406,192.76560974121094 C234.08619639941406,193.29685974121094 235.17213439941406,193.56248474121094 236.39088439941406,193.56248474121094 C238.46119639941406,193.56248474121094 240.22682239941406,192.68748474121094 241.68775939941406,190.93748474121094 L245.71900939941406,194.59373474121094 C244.63307239941406,195.96092274121094 243.26979039941406,197.00779674121094 241.62525939941406,197.73435974121094 C239.97682239941406,198.46092224121094 238.12916539941406,198.82810974121094 236.07838439941406,198.82810974121094 zM236.07838439941406,198.82810974121094 " id="svg_35"/></g></g></g><g fill="#ffffff" fill-opacity="1" class="" id="svg_82" transform="translate(2.1052629947662354,-1.0526314973831177) translate(-61.57894515991211,-152.10525512695312) "><g id="svg_83"><g id="svg_38"><path d="M256.9748077392578,198.65623474121094 C255.1193387392578,198.65623474121094 253.4435577392578,198.27732854121095 251.9435577392578,197.51560974121094 C250.4513707392578,196.74607874121094 249.2794947392578,195.67967274121094 248.4279327392578,194.31248474121094 C247.5841827392578,192.93748474121094 247.1623077392578,191.38670374121094 247.1623077392578,189.65623474121094 C247.1623077392578,187.94920374121094 247.5841827392578,186.41404674121094 248.4279327392578,185.04685974121094 C249.2794947392578,183.67185974121094 250.4474637392578,182.60545374121094 251.9279327392578,181.84373474121094 C253.4162137392578,181.08592274121094 255.0998077392578,180.70310974121094 256.9748077392578,180.70310974121094 C258.8576207392578,180.70310974121094 260.5451207392578,181.08592274121094 262.0373077392578,181.84373474121094 C263.5373077392578,182.60545374121094 264.7013707392578,183.66795374121094 265.5373077392578,185.03123474121094 C266.36933873925784,186.38670374121094 266.7873077392578,187.92967274121094 266.7873077392578,189.65623474121094 C266.7873077392578,191.38670374121094 266.36933873925784,192.93748474121094 265.5373077392578,194.31248474121094 C264.7013707392578,195.67967274121094 263.5373077392578,196.74607874121094 262.0373077392578,197.51560974121094 C260.5451207392578,198.27732854121095 258.8576207392578,198.65623474121094 256.9748077392578,198.65623474121094 zM256.9748077392578,193.82810974121094 C258.0451207392578,193.82810974121094 258.9201207392578,193.46092274121094 259.5998077392578,192.71873474121094 C260.2873077392578,191.98045374121094 260.6310577392578,190.96092274121094 260.6310577392578,189.65623474121094 C260.6310577392578,188.37498474121094 260.2873077392578,187.37107874121094 259.5998077392578,186.64060974121094 C258.9201207392578,185.91404674121094 258.0451207392578,185.54685974121094 256.9748077392578,185.54685974121094 C255.9123077392578,185.54685974121094 255.0373077392578,185.91404674121094 254.3498077392578,186.64060974121094 C253.6623077392578,187.37107874121094 253.3185577392578,188.37498474121094 253.3185577392578,189.65623474121094 C253.3185577392578,190.96092274121094 253.6623077392578,191.98045374121094 254.3498077392578,192.71873474121094 C255.0373077392578,193.46092274121094 255.9123077392578,193.82810974121094 256.9748077392578,193.82810974121094 zM256.9748077392578,193.82810974121094 " id="svg_39"/></g></g></g><g fill="#ffffff" fill-opacity="1" class="" id="svg_84" transform="translate(2.1052629947662354,-1.0526314973831177) translate(-61.57894515991211,-152.10525512695312) "><g id="svg_85"><g id="svg_42"><path d="M287.922119140625,180.99998474121094 L280.734619140625,198.37498474121094 L274.453369140625,198.37498474121094 L267.297119140625,180.99998474121094 L273.562744140625,180.99998474121094 L277.718994140625,191.60935974121094 L282.109619140625,180.99998474121094 zM287.922119140625,180.99998474121094 " id="svg_43"/></g></g></g><g fill="#ffffff" fill-opacity="1" class="" id="svg_86" transform="translate(2.1052629947662354,-1.0526314973831177) translate(-61.57894515991211,-152.10525512695312) "><g id="svg_87"><g id="svg_46"><path d="M307.2539367675781,189.71873474121094 C307.2539367675781,189.76170374121094 307.2226867675781,190.26170374121094 307.1601867675781,191.21873474121094 L294.5195617675781,191.21873474121094 C294.7773747675781,192.12498474121094 295.2773747675781,192.82029674121094 296.0195617675781,193.29685974121094 C296.75784276757815,193.77732874121094 297.67971776757815,194.01560974121094 298.7851867675781,194.01560974121094 C299.61721776757815,194.01560974121094 300.33596776757815,193.90232874121094 300.9414367675781,193.67185974121094 C301.55471776757815,193.43357874121094 302.1758117675781,193.04295374121094 302.8008117675781,192.49998474121094 L306.0039367675781,195.84373474121094 C304.3164367675781,197.71873474121094 301.8476867675781,198.65623474121094 298.5976867675781,198.65623474121094 C296.5664367675781,198.65623474121094 294.7773747675781,198.27732854121095 293.2383117675781,197.51560974121094 C291.7070617675781,196.74607874121094 290.5117487675781,195.67967274121094 289.6601867675781,194.31248474121094 C288.8164367675781,192.93748474121094 288.3945617675781,191.38670374121094 288.3945617675781,189.65623474121094 C288.3945617675781,187.94920374121094 288.8047177675781,186.41795374121094 289.6289367675781,185.06248474121094 C290.4492487675781,183.69920374121094 291.5859677675781,182.63279674121094 293.0351867675781,181.85935974121094 C294.4922177675781,181.08982874121094 296.13284276757815,180.70310974121094 297.9570617675781,180.70310974121094 C299.6836247675781,180.70310974121094 301.2539367675781,181.06248474121094 302.6601867675781,181.78123474121094 C304.0742487675781,182.49998474121094 305.19534276757815,183.53904674121094 306.0195617675781,184.89060974121094 C306.8398747675781,186.24607874121094 307.2539367675781,187.85545374121094 307.2539367675781,189.71873474121094 zM297.9883117675781,185.03123474121094 C297.0508117675781,185.03123474121094 296.2617487675781,185.30467274121094 295.6289367675781,185.84373474121094 C295.0039367675781,186.37498474121094 294.6015927675781,187.10154674121094 294.4258117675781,188.01560974121094 L301.5508117675781,188.01560974121094 C301.3711247675781,187.10154674121094 300.9648747675781,186.37498474121094 300.3320617675781,185.84373474121094 C299.7070617675781,185.30467274121094 298.9258117675781,185.03123474121094 297.9883117675781,185.03123474121094 zM297.9883117675781,185.03123474121094 " id="svg_47"/></g></g></g><g fill="#ffffff" fill-opacity="1" class="" id="svg_88" transform="translate(2.1052629947662354,-1.0526314973831177) translate(-61.57894515991211,-152.10525512695312) "><g id="svg_89"><g id="svg_18"><path d="M158.7117919921875,198.82810974121094 C156.3563229921875,198.82810974121094 154.2430419921875,198.33592224121094 152.3680419921875,197.34373474121094 C150.5008539921875,196.34373474121094 149.0321039921875,194.96092274121094 147.9617919921875,193.18748474121094 C146.8992919921875,191.40623474121094 146.3680419921875,189.39842274121094 146.3680419921875,187.15623474121094 C146.3680419921875,184.90623474121094 146.8992919921875,182.89842274121094 147.9617919921875,181.12498474121094 C149.0321039921875,179.35545374121094 150.5008539921875,177.97654674121094 152.3680419921875,176.98435974121094 C154.2430419921875,175.98435974121094 156.3563229921875,175.48435974121094 158.7117919921875,175.48435974121094 C160.7625729921875,175.48435974121094 162.6102299921875,175.85154674121094 164.2586669921875,176.57810974121094 C165.9031979921875,177.29685974121094 167.2664799921875,178.34373474121094 168.3524169921875,179.71873474121094 L164.3211669921875,183.37498474121094 C162.8602299921875,181.61717274121094 161.0946039921875,180.73435974121094 159.0242919921875,180.73435974121094 C157.8055419921875,180.73435974121094 156.7196039921875,181.00779674121094 155.7742919921875,181.54685974121094 C154.8250729921875,182.07810974121094 154.0867919921875,182.83592274121094 153.5555419921875,183.81248474121094 C153.0321039921875,184.78123474121094 152.7742919921875,185.89842274121094 152.7742919921875,187.15623474121094 C152.7742919921875,188.41795374121094 153.0321039921875,189.53904674121094 153.5555419921875,190.51560974121094 C154.0867919921875,191.48435974121094 154.8250729921875,192.23435974121094 155.7742919921875,192.76560974121094 C156.7196039921875,193.29685974121094 157.8055419921875,193.56248474121094 159.0242919921875,193.56248474121094 C161.0946039921875,193.56248474121094 162.8602299921875,192.68748474121094 164.3211669921875,190.93748474121094 L168.3524169921875,194.59373474121094 C167.2664799921875,195.96092274121094 165.9031979921875,197.00779674121094 164.2586669921875,197.73435974121094 C162.6102299921875,198.46092224121094 160.7625729921875,198.82810974121094 158.7117919921875,198.82810974121094 zM158.7117919921875,198.82810974121094 " id="svg_19"/></g></g></g><g fill="#ffffff" fill-opacity="1" class="" id="svg_90" transform="translate(2.1052629947662354,-1.0526314973831177) translate(-61.57894515991211,-152.10525512695312) "><g id="svg_91"><g id="svg_22"><path d="M179.60821533203125,198.65623474121094 C177.75274633203125,198.65623474121094 176.07696533203125,198.27732854121095 174.57696533203125,197.51560974121094 C173.08477833203125,196.74607874121094 171.91290233203125,195.67967274121094 171.06134033203125,194.31248474121094 C170.21759033203125,192.93748474121094 169.79571533203125,191.38670374121094 169.79571533203125,189.65623474121094 C169.79571533203125,187.94920374121094 170.21759033203125,186.41404674121094 171.06134033203125,185.04685974121094 C171.91290233203125,183.67185974121094 173.08087133203125,182.60545374121094 174.56134033203125,181.84373474121094 C176.04962133203125,181.08592274121094 177.73321533203125,180.70310974121094 179.60821533203125,180.70310974121094 C181.49102833203125,180.70310974121094 183.17852833203125,181.08592274121094 184.67071533203125,181.84373474121094 C186.17071533203125,182.60545374121094 187.33477833203125,183.66795374121094 188.17071533203125,185.03123474121094 C189.00274633203125,186.38670374121094 189.42071533203125,187.92967274121094 189.42071533203125,189.65623474121094 C189.42071533203125,191.38670374121094 189.00274633203125,192.93748474121094 188.17071533203125,194.31248474121094 C187.33477833203125,195.67967274121094 186.17071533203125,196.74607874121094 184.67071533203125,197.51560974121094 C183.17852833203125,198.27732854121095 181.49102833203125,198.65623474121094 179.60821533203125,198.65623474121094 zM179.60821533203125,193.82810974121094 C180.67852833203125,193.82810974121094 181.55352833203125,193.46092274121094 182.23321533203125,192.71873474121094 C182.92071533203125,191.98045374121094 183.26446533203125,190.96092274121094 183.26446533203125,189.65623474121094 C183.26446533203125,188.37498474121094 182.92071533203125,187.37107874121094 182.23321533203125,186.64060974121094 C181.55352833203125,185.91404674121094 180.67852833203125,185.54685974121094 179.60821533203125,185.54685974121094 C178.54571533203125,185.54685974121094 177.67071533203125,185.91404674121094 176.98321533203125,186.64060974121094 C176.29571533203125,187.37107874121094 175.95196533203125,188.37498474121094 175.95196533203125,189.65623474121094 C175.95196533203125,190.96092274121094 176.29571533203125,191.98045374121094 176.98321533203125,192.71873474121094 C177.67071533203125,193.46092274121094 178.54571533203125,193.82810974121094 179.60821533203125,193.82810974121094 zM179.60821533203125,193.82810974121094 " id="svg_23"/></g></g></g><g fill="#ffffff" fill-opacity="1" class="" id="svg_92" transform="translate(2.1052629947662354,-1.0526314973831177) translate(-61.57894515991211,-152.10525512695312) "><g id="svg_93"><g id="svg_26"><path d="M192.2430419921875,180.99998474121094 L198.3367919921875,180.99998474121094 L198.3367919921875,198.37498474121094 L192.2430419921875,198.37498474121094 zM195.2899169921875,179.07810974121094 C194.1844479921875,179.07810974121094 193.2899169921875,178.77342274121094 192.6024169921875,178.15623474121094 C191.9149169921875,177.53123474121094 191.5711669921875,176.75779674121094 191.5711669921875,175.82810974121094 C191.5711669921875,174.91404674121094 191.9149169921875,174.14842274121094 192.6024169921875,173.53123474121094 C193.2899169921875,172.90623474121094 194.1844479921875,172.59373474121094 195.2899169921875,172.59373474121094 C196.4031979921875,172.59373474121094 197.2977289921875,172.89060974121094 197.9774169921875,173.48435974121094 C198.6649169921875,174.07029674121094 199.0086669921875,174.82029674121094 199.0086669921875,175.73435974121094 C199.0086669921875,176.70310974121094 198.6649169921875,177.50779674121094 197.9774169921875,178.14060974121094 C197.2977289921875,178.76560974121094 196.4031979921875,179.07810974121094 195.2899169921875,179.07810974121094 zM195.2899169921875,179.07810974121094 " id="svg_27"/></g></g></g><g fill="#ffffff" fill-opacity="1" class="" id="svg_94" transform="translate(2.1052629947662354,-1.0526314973831177) translate(-61.57894515991211,-152.10525512695312) "><g id="svg_95"><g id="svg_30"><path d="M213.606689453125,180.70310974121094 C215.762939453125,180.70310974121094 217.497314453125,181.35154674121094 218.809814453125,182.64060974121094 C220.122314453125,183.92185974121094 220.778564453125,185.85545374121094 220.778564453125,188.43748474121094 L220.778564453125,198.37498474121094 L214.684814453125,198.37498474121094 L214.684814453125,189.42185974121094 C214.684814453125,187.05857874121094 213.735595453125,185.87498474121094 211.841064453125,185.87498474121094 C210.786377453125,185.87498474121094 209.942627453125,186.21873474121094 209.309814453125,186.90623474121094 C208.684814453125,187.58592274121094 208.372314453125,188.60545374121094 208.372314453125,189.96873474121094 L208.372314453125,198.37498474121094 L202.278564453125,198.37498474121094 L202.278564453125,180.99998474121094 L208.091064453125,180.99998474121094 L208.091064453125,182.89060974121094 C208.766845453125,182.18357874121094 209.575439453125,181.64060974121094 210.512939453125,181.26560974121094 C211.458251453125,180.89060974121094 212.489501453125,180.70310974121094 213.606689453125,180.70310974121094 zM213.606689453125,180.70310974121094 " id="svg_31"/></g></g></g><g fill="#ffffff" fill-opacity="1" class="" id="svg_96" transform="translate(2.1052629947662354,-1.0526314973831177) translate(-61.57894515991211,-152.10525512695312) "><g id="svg_97"><g id="svg_34"><path d="M236.07838439941406,198.82810974121094 C233.72291539941406,198.82810974121094 231.60963439941406,198.33592224121094 229.73463439941406,197.34373474121094 C227.86744639941406,196.34373474121094 226.39869639941406,194.96092274121094 225.32838439941406,193.18748474121094 C224.26588439941406,191.40623474121094 223.73463439941406,189.39842274121094 223.73463439941406,187.15623474121094 C223.73463439941406,184.90623474121094 224.26588439941406,182.89842274121094 225.32838439941406,181.12498474121094 C226.39869639941406,179.35545374121094 227.86744639941406,177.97654674121094 229.73463439941406,176.98435974121094 C231.60963439941406,175.98435974121094 233.72291539941406,175.48435974121094 236.07838439941406,175.48435974121094 C238.12916539941406,175.48435974121094 239.97682239941406,175.85154674121094 241.62525939941406,176.57810974121094 C243.26979039941406,177.29685974121094 244.63307239941406,178.34373474121094 245.71900939941406,179.71873474121094 L241.68775939941406,183.37498474121094 C240.22682239941406,181.61717274121094 238.46119639941406,180.73435974121094 236.39088439941406,180.73435974121094 C235.17213439941406,180.73435974121094 234.08619639941406,181.00779674121094 233.14088439941406,181.54685974121094 C232.19166539941406,182.07810974121094 231.45338439941406,182.83592274121094 230.92213439941406,183.81248474121094 C230.39869639941406,184.78123474121094 230.14088439941406,185.89842274121094 230.14088439941406,187.15623474121094 C230.14088439941406,188.41795374121094 230.39869639941406,189.53904674121094 230.92213439941406,190.51560974121094 C231.45338439941406,191.48435974121094 232.19166539941406,192.23435974121094 233.14088439941406,192.76560974121094 C234.08619639941406,193.29685974121094 235.17213439941406,193.56248474121094 236.39088439941406,193.56248474121094 C238.46119639941406,193.56248474121094 240.22682239941406,192.68748474121094 241.68775939941406,190.93748474121094 L245.71900939941406,194.59373474121094 C244.63307239941406,195.96092274121094 243.26979039941406,197.00779674121094 241.62525939941406,197.73435974121094 C239.97682239941406,198.46092224121094 238.12916539941406,198.82810974121094 236.07838439941406,198.82810974121094 zM236.07838439941406,198.82810974121094 " id="svg_35"/></g></g></g><g fill="#ffffff" fill-opacity="1" class="" id="svg_98" transform="translate(2.1052629947662354,-1.0526314973831177) translate(-61.57894515991211,-152.10525512695312) "><g id="svg_99"><g id="svg_38"><path d="M256.9748077392578,198.65623474121094 C255.1193387392578,198.65623474121094 253.4435577392578,198.27732854121095 251.9435577392578,197.51560974121094 C250.4513707392578,196.74607874121094 249.2794947392578,195.67967274121094 248.4279327392578,194.31248474121094 C247.5841827392578,192.93748474121094 247.1623077392578,191.38670374121094 247.1623077392578,189.65623474121094 C247.1623077392578,187.94920374121094 247.5841827392578,186.41404674121094 248.4279327392578,185.04685974121094 C249.2794947392578,183.67185974121094 250.4474637392578,182.60545374121094 251.9279327392578,181.84373474121094 C253.4162137392578,181.08592274121094 255.0998077392578,180.70310974121094 256.9748077392578,180.70310974121094 C258.8576207392578,180.70310974121094 260.5451207392578,181.08592274121094 262.0373077392578,181.84373474121094 C263.5373077392578,182.60545374121094 264.7013707392578,183.66795374121094 265.5373077392578,185.03123474121094 C266.36933873925784,186.38670374121094 266.7873077392578,187.92967274121094 266.7873077392578,189.65623474121094 C266.7873077392578,191.38670374121094 266.36933873925784,192.93748474121094 265.5373077392578,194.31248474121094 C264.7013707392578,195.67967274121094 263.5373077392578,196.74607874121094 262.0373077392578,197.51560974121094 C260.5451207392578,198.27732854121095 258.8576207392578,198.65623474121094 256.9748077392578,198.65623474121094 zM256.9748077392578,193.82810974121094 C258.0451207392578,193.82810974121094 258.9201207392578,193.46092274121094 259.5998077392578,192.71873474121094 C260.2873077392578,191.98045374121094 260.6310577392578,190.96092274121094 260.6310577392578,189.65623474121094 C260.6310577392578,188.37498474121094 260.2873077392578,187.37107874121094 259.5998077392578,186.64060974121094 C258.9201207392578,185.91404674121094 258.0451207392578,185.54685974121094 256.9748077392578,185.54685974121094 C255.9123077392578,185.54685974121094 255.0373077392578,185.91404674121094 254.3498077392578,186.64060974121094 C253.6623077392578,187.37107874121094 253.3185577392578,188.37498474121094 253.3185577392578,189.65623474121094 C253.3185577392578,190.96092274121094 253.6623077392578,191.98045374121094 254.3498077392578,192.71873474121094 C255.0373077392578,193.46092274121094 255.9123077392578,193.82810974121094 256.9748077392578,193.82810974121094 zM256.9748077392578,193.82810974121094 " id="svg_39"/></g></g></g><g fill="#ffffff" fill-opacity="1" class="" id="svg_100" transform="translate(2.1052629947662354,-1.0526314973831177) translate(-61.57894515991211,-152.10525512695312) "><g id="svg_101"><g id="svg_42"><path d="M287.922119140625,180.99998474121094 L280.734619140625,198.37498474121094 L274.453369140625,198.37498474121094 L267.297119140625,180.99998474121094 L273.562744140625,180.99998474121094 L277.718994140625,191.60935974121094 L282.109619140625,180.99998474121094 zM287.922119140625,180.99998474121094 " id="svg_43"/></g></g></g><g fill="#ffffff" fill-opacity="1" class="" id="svg_102" transform="translate(2.1052629947662354,-1.0526314973831177) translate(-61.57894515991211,-152.10525512695312) "><g id="svg_103"><g id="svg_46"><path d="M307.2539367675781,189.71873474121094 C307.2539367675781,189.76170374121094 307.2226867675781,190.26170374121094 307.1601867675781,191.21873474121094 L294.5195617675781,191.21873474121094 C294.7773747675781,192.12498474121094 295.2773747675781,192.82029674121094 296.0195617675781,193.29685974121094 C296.75784276757815,193.77732874121094 297.67971776757815,194.01560974121094 298.7851867675781,194.01560974121094 C299.61721776757815,194.01560974121094 300.33596776757815,193.90232874121094 300.9414367675781,193.67185974121094 C301.55471776757815,193.43357874121094 302.1758117675781,193.04295374121094 302.8008117675781,192.49998474121094 L306.0039367675781,195.84373474121094 C304.3164367675781,197.71873474121094 301.8476867675781,198.65623474121094 298.5976867675781,198.65623474121094 C296.5664367675781,198.65623474121094 294.7773747675781,198.27732854121095 293.2383117675781,197.51560974121094 C291.7070617675781,196.74607874121094 290.5117487675781,195.67967274121094 289.6601867675781,194.31248474121094 C288.8164367675781,192.93748474121094 288.3945617675781,191.38670374121094 288.3945617675781,189.65623474121094 C288.3945617675781,187.94920374121094 288.8047177675781,186.41795374121094 289.6289367675781,185.06248474121094 C290.4492487675781,183.69920374121094 291.5859677675781,182.63279674121094 293.0351867675781,181.85935974121094 C294.4922177675781,181.08982874121094 296.13284276757815,180.70310974121094 297.9570617675781,180.70310974121094 C299.6836247675781,180.70310974121094 301.2539367675781,181.06248474121094 302.6601867675781,181.78123474121094 C304.0742487675781,182.49998474121094 305.19534276757815,183.53904674121094 306.0195617675781,184.89060974121094 C306.8398747675781,186.24607874121094 307.2539367675781,187.85545374121094 307.2539367675781,189.71873474121094 zM297.9883117675781,185.03123474121094 C297.0508117675781,185.03123474121094 296.2617487675781,185.30467274121094 295.6289367675781,185.84373474121094 C295.0039367675781,186.37498474121094 294.6015927675781,187.10154674121094 294.4258117675781,188.01560974121094 L301.5508117675781,188.01560974121094 C301.3711247675781,187.10154674121094 300.9648747675781,186.37498474121094 300.3320617675781,185.84373474121094 C299.7070617675781,185.30467274121094 298.9258117675781,185.03123474121094 297.9883117675781,185.03123474121094 zM297.9883117675781,185.03123474121094 " id="svg_47"/></g></g></g><g fill="#ffffff" fill-opacity="1" class="" id="svg_54" transform="translate(2.1052629947662354,-1.0526314973831177) translate(-61.57894515991211,-152.10525512695312) "><g id="svg_55"><g id="svg_22"><path d="M179.60821533203125,198.65623474121094 C177.75274633203125,198.65623474121094 176.07696533203125,198.27732854121095 174.57696533203125,197.51560974121094 C173.08477833203125,196.74607874121094 171.91290233203125,195.67967274121094 171.06134033203125,194.31248474121094 C170.21759033203125,192.93748474121094 169.79571533203125,191.38670374121094 169.79571533203125,189.65623474121094 C169.79571533203125,187.94920374121094 170.21759033203125,186.41404674121094 171.06134033203125,185.04685974121094 C171.91290233203125,183.67185974121094 173.08087133203125,182.60545374121094 174.56134033203125,181.84373474121094 C176.04962133203125,181.08592274121094 177.73321533203125,180.70310974121094 179.60821533203125,180.70310974121094 C181.49102833203125,180.70310974121094 183.17852833203125,181.08592274121094 184.67071533203125,181.84373474121094 C186.17071533203125,182.60545374121094 187.33477833203125,183.66795374121094 188.17071533203125,185.03123474121094 C189.00274633203125,186.38670374121094 189.42071533203125,187.92967274121094 189.42071533203125,189.65623474121094 C189.42071533203125,191.38670374121094 189.00274633203125,192.93748474121094 188.17071533203125,194.31248474121094 C187.33477833203125,195.67967274121094 186.17071533203125,196.74607874121094 184.67071533203125,197.51560974121094 C183.17852833203125,198.27732854121095 181.49102833203125,198.65623474121094 179.60821533203125,198.65623474121094 zM179.60821533203125,193.82810974121094 C180.67852833203125,193.82810974121094 181.55352833203125,193.46092274121094 182.23321533203125,192.71873474121094 C182.92071533203125,191.98045374121094 183.26446533203125,190.96092274121094 183.26446533203125,189.65623474121094 C183.26446533203125,188.37498474121094 182.92071533203125,187.37107874121094 182.23321533203125,186.64060974121094 C181.55352833203125,185.91404674121094 180.67852833203125,185.54685974121094 179.60821533203125,185.54685974121094 C178.54571533203125,185.54685974121094 177.67071533203125,185.91404674121094 176.98321533203125,186.64060974121094 C176.29571533203125,187.37107874121094 175.95196533203125,188.37498474121094 175.95196533203125,189.65623474121094 C175.95196533203125,190.96092274121094 176.29571533203125,191.98045374121094 176.98321533203125,192.71873474121094 C177.67071533203125,193.46092274121094 178.54571533203125,193.82810974121094 179.60821533203125,193.82810974121094 zM179.60821533203125,193.82810974121094 " id="svg_23"/></g></g></g><g fill="#ffffff" fill-opacity="1" class="" id="svg_56" transform="translate(2.1052629947662354,-1.0526314973831177) translate(-61.57894515991211,-152.10525512695312) "><g id="svg_57"><g id="svg_26"><path d="M192.2430419921875,180.99998474121094 L198.3367919921875,180.99998474121094 L198.3367919921875,198.37498474121094 L192.2430419921875,198.37498474121094 zM195.2899169921875,179.07810974121094 C194.1844479921875,179.07810974121094 193.2899169921875,178.77342274121094 192.6024169921875,178.15623474121094 C191.9149169921875,177.53123474121094 191.5711669921875,176.75779674121094 191.5711669921875,175.82810974121094 C191.5711669921875,174.91404674121094 191.9149169921875,174.14842274121094 192.6024169921875,173.53123474121094 C193.2899169921875,172.90623474121094 194.1844479921875,172.59373474121094 195.2899169921875,172.59373474121094 C196.4031979921875,172.59373474121094 197.2977289921875,172.89060974121094 197.9774169921875,173.48435974121094 C198.6649169921875,174.07029674121094 199.0086669921875,174.82029674121094 199.0086669921875,175.73435974121094 C199.0086669921875,176.70310974121094 198.6649169921875,177.50779674121094 197.9774169921875,178.14060974121094 C197.2977289921875,178.76560974121094 196.4031979921875,179.07810974121094 195.2899169921875,179.07810974121094 zM195.2899169921875,179.07810974121094 " id="svg_27"/></g></g></g><g fill="#ffffff" fill-opacity="1" class="" id="svg_58" transform="translate(2.1052629947662354,-1.0526314973831177) translate(-61.57894515991211,-152.10525512695312) "><g id="svg_59"><g id="svg_30"><path d="M213.606689453125,180.70310974121094 C215.762939453125,180.70310974121094 217.497314453125,181.35154674121094 218.809814453125,182.64060974121094 C220.122314453125,183.92185974121094 220.778564453125,185.85545374121094 220.778564453125,188.43748474121094 L220.778564453125,198.37498474121094 L214.684814453125,198.37498474121094 L214.684814453125,189.42185974121094 C214.684814453125,187.05857874121094 213.735595453125,185.87498474121094 211.841064453125,185.87498474121094 C210.786377453125,185.87498474121094 209.942627453125,186.21873474121094 209.309814453125,186.90623474121094 C208.684814453125,187.58592274121094 208.372314453125,188.60545374121094 208.372314453125,189.96873474121094 L208.372314453125,198.37498474121094 L202.278564453125,198.37498474121094 L202.278564453125,180.99998474121094 L208.091064453125,180.99998474121094 L208.091064453125,182.89060974121094 C208.766845453125,182.18357874121094 209.575439453125,181.64060974121094 210.512939453125,181.26560974121094 C211.458251453125,180.89060974121094 212.489501453125,180.70310974121094 213.606689453125,180.70310974121094 zM213.606689453125,180.70310974121094 " id="svg_31"/></g></g></g><g fill="#ffffff" fill-opacity="1" class="" id="svg_60" transform="translate(2.1052629947662354,-1.0526314973831177) translate(-61.57894515991211,-152.10525512695312) "><g id="svg_61"><g id="svg_34"><path d="M236.07838439941406,198.82810974121094 C233.72291539941406,198.82810974121094 231.60963439941406,198.33592224121094 229.73463439941406,197.34373474121094 C227.86744639941406,196.34373474121094 226.39869639941406,194.96092274121094 225.32838439941406,193.18748474121094 C224.26588439941406,191.40623474121094 223.73463439941406,189.39842274121094 223.73463439941406,187.15623474121094 C223.73463439941406,184.90623474121094 224.26588439941406,182.89842274121094 225.32838439941406,181.12498474121094 C226.39869639941406,179.35545374121094 227.86744639941406,177.97654674121094 229.73463439941406,176.98435974121094 C231.60963439941406,175.98435974121094 233.72291539941406,175.48435974121094 236.07838439941406,175.48435974121094 C238.12916539941406,175.48435974121094 239.97682239941406,175.85154674121094 241.62525939941406,176.57810974121094 C243.26979039941406,177.29685974121094 244.63307239941406,178.34373474121094 245.71900939941406,179.71873474121094 L241.68775939941406,183.37498474121094 C240.22682239941406,181.61717274121094 238.46119639941406,180.73435974121094 236.39088439941406,180.73435974121094 C235.17213439941406,180.73435974121094 234.08619639941406,181.00779674121094 233.14088439941406,181.54685974121094 C232.19166539941406,182.07810974121094 231.45338439941406,182.83592274121094 230.92213439941406,183.81248474121094 C230.39869639941406,184.78123474121094 230.14088439941406,185.89842274121094 230.14088439941406,187.15623474121094 C230.14088439941406,188.41795374121094 230.39869639941406,189.53904674121094 230.92213439941406,190.51560974121094 C231.45338439941406,191.48435974121094 232.19166539941406,192.23435974121094 233.14088439941406,192.76560974121094 C234.08619639941406,193.29685974121094 235.17213439941406,193.56248474121094 236.39088439941406,193.56248474121094 C238.46119639941406,193.56248474121094 240.22682239941406,192.68748474121094 241.68775939941406,190.93748474121094 L245.71900939941406,194.59373474121094 C244.63307239941406,195.96092274121094 243.26979039941406,197.00779674121094 241.62525939941406,197.73435974121094 C239.97682239941406,198.46092224121094 238.12916539941406,198.82810974121094 236.07838439941406,198.82810974121094 zM236.07838439941406,198.82810974121094 " id="svg_35"/></g></g></g><g fill="#ffffff" fill-opacity="1" class="" id="svg_62" transform="translate(2.1052629947662354,-1.0526314973831177) translate(-61.57894515991211,-152.10525512695312) "><g id="svg_63"><g id="svg_38"><path d="M256.9748077392578,198.65623474121094 C255.1193387392578,198.65623474121094 253.4435577392578,198.27732854121095 251.9435577392578,197.51560974121094 C250.4513707392578,196.74607874121094 249.2794947392578,195.67967274121094 248.4279327392578,194.31248474121094 C247.5841827392578,192.93748474121094 247.1623077392578,191.38670374121094 247.1623077392578,189.65623474121094 C247.1623077392578,187.94920374121094 247.5841827392578,186.41404674121094 248.4279327392578,185.04685974121094 C249.2794947392578,183.67185974121094 250.4474637392578,182.60545374121094 251.9279327392578,181.84373474121094 C253.4162137392578,181.08592274121094 255.0998077392578,180.70310974121094 256.9748077392578,180.70310974121094 C258.8576207392578,180.70310974121094 260.5451207392578,181.08592274121094 262.0373077392578,181.84373474121094 C263.5373077392578,182.60545374121094 264.7013707392578,183.66795374121094 265.5373077392578,185.03123474121094 C266.36933873925784,186.38670374121094 266.7873077392578,187.92967274121094 266.7873077392578,189.65623474121094 C266.7873077392578,191.38670374121094 266.36933873925784,192.93748474121094 265.5373077392578,194.31248474121094 C264.7013707392578,195.67967274121094 263.5373077392578,196.74607874121094 262.0373077392578,197.51560974121094 C260.5451207392578,198.27732854121095 258.8576207392578,198.65623474121094 256.9748077392578,198.65623474121094 zM256.9748077392578,193.82810974121094 C258.0451207392578,193.82810974121094 258.9201207392578,193.46092274121094 259.5998077392578,192.71873474121094 C260.2873077392578,191.98045374121094 260.6310577392578,190.96092274121094 260.6310577392578,189.65623474121094 C260.6310577392578,188.37498474121094 260.2873077392578,187.37107874121094 259.5998077392578,186.64060974121094 C258.9201207392578,185.91404674121094 258.0451207392578,185.54685974121094 256.9748077392578,185.54685974121094 C255.9123077392578,185.54685974121094 255.0373077392578,185.91404674121094 254.3498077392578,186.64060974121094 C253.6623077392578,187.37107874121094 253.3185577392578,188.37498474121094 253.3185577392578,189.65623474121094 C253.3185577392578,190.96092274121094 253.6623077392578,191.98045374121094 254.3498077392578,192.71873474121094 C255.0373077392578,193.46092274121094 255.9123077392578,193.82810974121094 256.9748077392578,193.82810974121094 zM256.9748077392578,193.82810974121094 " id="svg_39"/></g></g></g><g fill="#ffffff" fill-opacity="1" class="" id="svg_64" transform="translate(2.1052629947662354,-1.0526314973831177) translate(-61.57894515991211,-152.10525512695312) "><g id="svg_65"><g id="svg_42"><path d="M287.922119140625,180.99998474121094 L280.734619140625,198.37498474121094 L274.453369140625,198.37498474121094 L267.297119140625,180.99998474121094 L273.562744140625,180.99998474121094 L277.718994140625,191.60935974121094 L282.109619140625,180.99998474121094 zM287.922119140625,180.99998474121094 " id="svg_43"/></g></g></g><g fill="#ffffff" fill-opacity="1" class="" id="svg_66" transform="translate(2.1052629947662354,-1.0526314973831177) translate(-61.57894515991211,-152.10525512695312) "><g id="svg_67"><g id="svg_46"><path d="M307.2539367675781,189.71873474121094 C307.2539367675781,189.76170374121094 307.2226867675781,190.26170374121094 307.1601867675781,191.21873474121094 L294.5195617675781,191.21873474121094 C294.7773747675781,192.12498474121094 295.2773747675781,192.82029674121094 296.0195617675781,193.29685974121094 C296.75784276757815,193.77732874121094 297.67971776757815,194.01560974121094 298.7851867675781,194.01560974121094 C299.61721776757815,194.01560974121094 300.33596776757815,193.90232874121094 300.9414367675781,193.67185974121094 C301.55471776757815,193.43357874121094 302.1758117675781,193.04295374121094 302.8008117675781,192.49998474121094 L306.0039367675781,195.84373474121094 C304.3164367675781,197.71873474121094 301.8476867675781,198.65623474121094 298.5976867675781,198.65623474121094 C296.5664367675781,198.65623474121094 294.7773747675781,198.27732854121095 293.2383117675781,197.51560974121094 C291.7070617675781,196.74607874121094 290.5117487675781,195.67967274121094 289.6601867675781,194.31248474121094 C288.8164367675781,192.93748474121094 288.3945617675781,191.38670374121094 288.3945617675781,189.65623474121094 C288.3945617675781,187.94920374121094 288.8047177675781,186.41795374121094 289.6289367675781,185.06248474121094 C290.4492487675781,183.69920374121094 291.5859677675781,182.63279674121094 293.0351867675781,181.85935974121094 C294.4922177675781,181.08982874121094 296.13284276757815,180.70310974121094 297.9570617675781,180.70310974121094 C299.6836247675781,180.70310974121094 301.2539367675781,181.06248474121094 302.6601867675781,181.78123474121094 C304.0742487675781,182.49998474121094 305.19534276757815,183.53904674121094 306.0195617675781,184.89060974121094 C306.8398747675781,186.24607874121094 307.2539367675781,187.85545374121094 307.2539367675781,189.71873474121094 zM297.9883117675781,185.03123474121094 C297.0508117675781,185.03123474121094 296.2617487675781,185.30467274121094 295.6289367675781,185.84373474121094 C295.0039367675781,186.37498474121094 294.6015927675781,187.10154674121094 294.4258117675781,188.01560974121094 L301.5508117675781,188.01560974121094 C301.3711247675781,187.10154674121094 300.9648747675781,186.37498474121094 300.3320617675781,185.84373474121094 C299.7070617675781,185.30467274121094 298.9258117675781,185.03123474121094 297.9883117675781,185.03123474121094 zM297.9883117675781,185.03123474121094 " id="svg_47"/></g></g></g><g clip-path="url(#7df353198f)" id="svg_12" class="" transform="translate(2.1052629947662354,-1.0526314973831177) translate(-61.57894515991211,-152.10525512695312) "><g clip-path="url(#0770df2b77)" id="svg_13"><g clip-path="url(#d5ffb67e31)" id="svg_14"><path fill="#ffffff" d="M 109.933594 193.03125 C 106.789062 197.144531 100.90625 197.933594 96.792969 194.789062 C 94.488281 193.027344 93.230469 190.410156 93.121094 187.722656 C 93.035156 185.71875 93.597656 183.671875 94.839844 181.921875 C 94.902344 181.832031 94.972656 181.738281 95.039062 181.648438 C 98.179688 177.535156 104.0625 176.75 108.175781 179.890625 C 109.023438 180.539062 109.726562 181.296875 110.285156 182.136719 C 111.445312 183.871094 111.976562 185.9375 111.835938 187.984375 C 111.714844 189.753906 111.09375 191.511719 109.933594 193.03125 " fill-opacity="1" fill-rule="nonzero" id="svg_15"/></g></g></g><g clip-path="url(#7df353198f)" class="" id="svg_68" transform="translate(2.1052629947662354,-1.0526314973831177) translate(-61.57894515991211,-152.10525512695312) "><g clip-path="url(#0770df2b77)" id="svg_69"><g clip-path="url(#d5ffb67e31)" id="svg_14"><path fill="#ffffff" d="M 109.933594 193.03125 C 106.789062 197.144531 100.90625 197.933594 96.792969 194.789062 C 94.488281 193.027344 93.230469 190.410156 93.121094 187.722656 C 93.035156 185.71875 93.597656 183.671875 94.839844 181.921875 C 94.902344 181.832031 94.972656 181.738281 95.039062 181.648438 C 98.179688 177.535156 104.0625 176.75 108.175781 179.890625 C 109.023438 180.539062 109.726562 181.296875 110.285156 182.136719 C 111.445312 183.871094 111.976562 185.9375 111.835938 187.984375 C 111.714844 189.753906 111.09375 191.511719 109.933594 193.03125 " fill-opacity="1" fill-rule="nonzero" id="svg_15"/></g></g></g><g fill="#ffffff" fill-opacity="1" id="svg_16" class="" transform="translate(2.1052629947662354,-1.0526314973831177) translate(-61.57894515991211,-152.10525512695312) "><g id="svg_17"><g id="svg_18"><path d="M158.7117919921875,198.82810974121094 C156.3563229921875,198.82810974121094 154.2430419921875,198.33592224121094 152.3680419921875,197.34373474121094 C150.5008539921875,196.34373474121094 149.0321039921875,194.96092274121094 147.9617919921875,193.18748474121094 C146.8992919921875,191.40623474121094 146.3680419921875,189.39842274121094 146.3680419921875,187.15623474121094 C146.3680419921875,184.90623474121094 146.8992919921875,182.89842274121094 147.9617919921875,181.12498474121094 C149.0321039921875,179.35545374121094 150.5008539921875,177.97654674121094 152.3680419921875,176.98435974121094 C154.2430419921875,175.98435974121094 156.3563229921875,175.48435974121094 158.7117919921875,175.48435974121094 C160.7625729921875,175.48435974121094 162.6102299921875,175.85154674121094 164.2586669921875,176.57810974121094 C165.9031979921875,177.29685974121094 167.2664799921875,178.34373474121094 168.3524169921875,179.71873474121094 L164.3211669921875,183.37498474121094 C162.8602299921875,181.61717274121094 161.0946039921875,180.73435974121094 159.0242919921875,180.73435974121094 C157.8055419921875,180.73435974121094 156.7196039921875,181.00779674121094 155.7742919921875,181.54685974121094 C154.8250729921875,182.07810974121094 154.0867919921875,182.83592274121094 153.5555419921875,183.81248474121094 C153.0321039921875,184.78123474121094 152.7742919921875,185.89842274121094 152.7742919921875,187.15623474121094 C152.7742919921875,188.41795374121094 153.0321039921875,189.53904674121094 153.5555419921875,190.51560974121094 C154.0867919921875,191.48435974121094 154.8250729921875,192.23435974121094 155.7742919921875,192.76560974121094 C156.7196039921875,193.29685974121094 157.8055419921875,193.56248474121094 159.0242919921875,193.56248474121094 C161.0946039921875,193.56248474121094 162.8602299921875,192.68748474121094 164.3211669921875,190.93748474121094 L168.3524169921875,194.59373474121094 C167.2664799921875,195.96092274121094 165.9031979921875,197.00779674121094 164.2586669921875,197.73435974121094 C162.6102299921875,198.46092224121094 160.7625729921875,198.82810974121094 158.7117919921875,198.82810974121094 zM158.7117919921875,198.82810974121094 " id="svg_19"/></g></g></g><g fill="#ffffff" fill-opacity="1" id="svg_20" class="" transform="translate(2.1052629947662354,-1.0526314973831177) translate(-61.57894515991211,-152.10525512695312) "><g id="svg_21"><g id="svg_22"><path d="M179.60821533203125,198.65623474121094 C177.75274633203125,198.65623474121094 176.07696533203125,198.27732854121095 174.57696533203125,197.51560974121094 C173.08477833203125,196.74607874121094 171.91290233203125,195.67967274121094 171.06134033203125,194.31248474121094 C170.21759033203125,192.93748474121094 169.79571533203125,191.38670374121094 169.79571533203125,189.65623474121094 C169.79571533203125,187.94920374121094 170.21759033203125,186.41404674121094 171.06134033203125,185.04685974121094 C171.91290233203125,183.67185974121094 173.08087133203125,182.60545374121094 174.56134033203125,181.84373474121094 C176.04962133203125,181.08592274121094 177.73321533203125,180.70310974121094 179.60821533203125,180.70310974121094 C181.49102833203125,180.70310974121094 183.17852833203125,181.08592274121094 184.67071533203125,181.84373474121094 C186.17071533203125,182.60545374121094 187.33477833203125,183.66795374121094 188.17071533203125,185.03123474121094 C189.00274633203125,186.38670374121094 189.42071533203125,187.92967274121094 189.42071533203125,189.65623474121094 C189.42071533203125,191.38670374121094 189.00274633203125,192.93748474121094 188.17071533203125,194.31248474121094 C187.33477833203125,195.67967274121094 186.17071533203125,196.74607874121094 184.67071533203125,197.51560974121094 C183.17852833203125,198.27732854121095 181.49102833203125,198.65623474121094 179.60821533203125,198.65623474121094 zM179.60821533203125,193.82810974121094 C180.67852833203125,193.82810974121094 181.55352833203125,193.46092274121094 182.23321533203125,192.71873474121094 C182.92071533203125,191.98045374121094 183.26446533203125,190.96092274121094 183.26446533203125,189.65623474121094 C183.26446533203125,188.37498474121094 182.92071533203125,187.37107874121094 182.23321533203125,186.64060974121094 C181.55352833203125,185.91404674121094 180.67852833203125,185.54685974121094 179.60821533203125,185.54685974121094 C178.54571533203125,185.54685974121094 177.67071533203125,185.91404674121094 176.98321533203125,186.64060974121094 C176.29571533203125,187.37107874121094 175.95196533203125,188.37498474121094 175.95196533203125,189.65623474121094 C175.95196533203125,190.96092274121094 176.29571533203125,191.98045374121094 176.98321533203125,192.71873474121094 C177.67071533203125,193.46092274121094 178.54571533203125,193.82810974121094 179.60821533203125,193.82810974121094 zM179.60821533203125,193.82810974121094 " id="svg_23"/></g></g></g><g fill="#ffffff" fill-opacity="1" id="svg_24" class="" transform="translate(2.1052629947662354,-1.0526314973831177) translate(-61.57894515991211,-152.10525512695312) "><g id="svg_25"><g id="svg_26"><path d="M192.2430419921875,180.99998474121094 L198.3367919921875,180.99998474121094 L198.3367919921875,198.37498474121094 L192.2430419921875,198.37498474121094 zM195.2899169921875,179.07810974121094 C194.1844479921875,179.07810974121094 193.2899169921875,178.77342274121094 192.6024169921875,178.15623474121094 C191.9149169921875,177.53123474121094 191.5711669921875,176.75779674121094 191.5711669921875,175.82810974121094 C191.5711669921875,174.91404674121094 191.9149169921875,174.14842274121094 192.6024169921875,173.53123474121094 C193.2899169921875,172.90623474121094 194.1844479921875,172.59373474121094 195.2899169921875,172.59373474121094 C196.4031979921875,172.59373474121094 197.2977289921875,172.89060974121094 197.9774169921875,173.48435974121094 C198.6649169921875,174.07029674121094 199.0086669921875,174.82029674121094 199.0086669921875,175.73435974121094 C199.0086669921875,176.70310974121094 198.6649169921875,177.50779674121094 197.9774169921875,178.14060974121094 C197.2977289921875,178.76560974121094 196.4031979921875,179.07810974121094 195.2899169921875,179.07810974121094 zM195.2899169921875,179.07810974121094 " id="svg_27"/></g></g></g><g fill="#ffffff" fill-opacity="1" id="svg_28" class="" transform="translate(2.1052629947662354,-1.0526314973831177) translate(-61.57894515991211,-152.10525512695312) "><g id="svg_29"><g id="svg_30"><path d="M213.606689453125,180.70310974121094 C215.762939453125,180.70310974121094 217.497314453125,181.35154674121094 218.809814453125,182.64060974121094 C220.122314453125,183.92185974121094 220.778564453125,185.85545374121094 220.778564453125,188.43748474121094 L220.778564453125,198.37498474121094 L214.684814453125,198.37498474121094 L214.684814453125,189.42185974121094 C214.684814453125,187.05857874121094 213.735595453125,185.87498474121094 211.841064453125,185.87498474121094 C210.786377453125,185.87498474121094 209.942627453125,186.21873474121094 209.309814453125,186.90623474121094 C208.684814453125,187.58592274121094 208.372314453125,188.60545374121094 208.372314453125,189.96873474121094 L208.372314453125,198.37498474121094 L202.278564453125,198.37498474121094 L202.278564453125,180.99998474121094 L208.091064453125,180.99998474121094 L208.091064453125,182.89060974121094 C208.766845453125,182.18357874121094 209.575439453125,181.64060974121094 210.512939453125,181.26560974121094 C211.458251453125,180.89060974121094 212.489501453125,180.70310974121094 213.606689453125,180.70310974121094 zM213.606689453125,180.70310974121094 " id="svg_31"/></g></g></g><g fill="#ffffff" fill-opacity="1" id="svg_32" class="" transform="translate(2.1052629947662354,-1.0526314973831177) translate(-61.57894515991211,-152.10525512695312) "><g id="svg_33"><g id="svg_34"><path d="M236.07838439941406,198.82810974121094 C233.72291539941406,198.82810974121094 231.60963439941406,198.33592224121094 229.73463439941406,197.34373474121094 C227.86744639941406,196.34373474121094 226.39869639941406,194.96092274121094 225.32838439941406,193.18748474121094 C224.26588439941406,191.40623474121094 223.73463439941406,189.39842274121094 223.73463439941406,187.15623474121094 C223.73463439941406,184.90623474121094 224.26588439941406,182.89842274121094 225.32838439941406,181.12498474121094 C226.39869639941406,179.35545374121094 227.86744639941406,177.97654674121094 229.73463439941406,176.98435974121094 C231.60963439941406,175.98435974121094 233.72291539941406,175.48435974121094 236.07838439941406,175.48435974121094 C238.12916539941406,175.48435974121094 239.97682239941406,175.85154674121094 241.62525939941406,176.57810974121094 C243.26979039941406,177.29685974121094 244.63307239941406,178.34373474121094 245.71900939941406,179.71873474121094 L241.68775939941406,183.37498474121094 C240.22682239941406,181.61717274121094 238.46119639941406,180.73435974121094 236.39088439941406,180.73435974121094 C235.17213439941406,180.73435974121094 234.08619639941406,181.00779674121094 233.14088439941406,181.54685974121094 C232.19166539941406,182.07810974121094 231.45338439941406,182.83592274121094 230.92213439941406,183.81248474121094 C230.39869639941406,184.78123474121094 230.14088439941406,185.89842274121094 230.14088439941406,187.15623474121094 C230.14088439941406,188.41795374121094 230.39869639941406,189.53904674121094 230.92213439941406,190.51560974121094 C231.45338439941406,191.48435974121094 232.19166539941406,192.23435974121094 233.14088439941406,192.76560974121094 C234.08619639941406,193.29685974121094 235.17213439941406,193.56248474121094 236.39088439941406,193.56248474121094 C238.46119639941406,193.56248474121094 240.22682239941406,192.68748474121094 241.68775939941406,190.93748474121094 L245.71900939941406,194.59373474121094 C244.63307239941406,195.96092274121094 243.26979039941406,197.00779674121094 241.62525939941406,197.73435974121094 C239.97682239941406,198.46092224121094 238.12916539941406,198.82810974121094 236.07838439941406,198.82810974121094 zM236.07838439941406,198.82810974121094 " id="svg_35"/></g></g></g><g fill="#ffffff" fill-opacity="1" id="svg_36" class="" transform="translate(2.1052629947662354,-1.0526314973831177) translate(-61.57894515991211,-152.10525512695312) "><g id="svg_37"><g id="svg_38"><path d="M256.9748077392578,198.65623474121094 C255.1193387392578,198.65623474121094 253.4435577392578,198.27732854121095 251.9435577392578,197.51560974121094 C250.4513707392578,196.74607874121094 249.2794947392578,195.67967274121094 248.4279327392578,194.31248474121094 C247.5841827392578,192.93748474121094 247.1623077392578,191.38670374121094 247.1623077392578,189.65623474121094 C247.1623077392578,187.94920374121094 247.5841827392578,186.41404674121094 248.4279327392578,185.04685974121094 C249.2794947392578,183.67185974121094 250.4474637392578,182.60545374121094 251.9279327392578,181.84373474121094 C253.4162137392578,181.08592274121094 255.0998077392578,180.70310974121094 256.9748077392578,180.70310974121094 C258.8576207392578,180.70310974121094 260.5451207392578,181.08592274121094 262.0373077392578,181.84373474121094 C263.5373077392578,182.60545374121094 264.7013707392578,183.66795374121094 265.5373077392578,185.03123474121094 C266.36933873925784,186.38670374121094 266.7873077392578,187.92967274121094 266.7873077392578,189.65623474121094 C266.7873077392578,191.38670374121094 266.36933873925784,192.93748474121094 265.5373077392578,194.31248474121094 C264.7013707392578,195.67967274121094 263.5373077392578,196.74607874121094 262.0373077392578,197.51560974121094 C260.5451207392578,198.27732854121095 258.8576207392578,198.65623474121094 256.9748077392578,198.65623474121094 zM256.9748077392578,193.82810974121094 C258.0451207392578,193.82810974121094 258.9201207392578,193.46092274121094 259.5998077392578,192.71873474121094 C260.2873077392578,191.98045374121094 260.6310577392578,190.96092274121094 260.6310577392578,189.65623474121094 C260.6310577392578,188.37498474121094 260.2873077392578,187.37107874121094 259.5998077392578,186.64060974121094 C258.9201207392578,185.91404674121094 258.0451207392578,185.54685974121094 256.9748077392578,185.54685974121094 C255.9123077392578,185.54685974121094 255.0373077392578,185.91404674121094 254.3498077392578,186.64060974121094 C253.6623077392578,187.37107874121094 253.3185577392578,188.37498474121094 253.3185577392578,189.65623474121094 C253.3185577392578,190.96092274121094 253.6623077392578,191.98045374121094 254.3498077392578,192.71873474121094 C255.0373077392578,193.46092274121094 255.9123077392578,193.82810974121094 256.9748077392578,193.82810974121094 zM256.9748077392578,193.82810974121094 " id="svg_39"/></g></g></g><g fill="#ffffff" fill-opacity="1" id="svg_40" class="" transform="translate(2.1052629947662354,-1.0526314973831177) translate(-61.57894515991211,-152.10525512695312) "><g id="svg_41"><g id="svg_42"><path d="M287.922119140625,180.99998474121094 L280.734619140625,198.37498474121094 L274.453369140625,198.37498474121094 L267.297119140625,180.99998474121094 L273.562744140625,180.99998474121094 L277.718994140625,191.60935974121094 L282.109619140625,180.99998474121094 zM287.922119140625,180.99998474121094 " id="svg_43"/></g></g></g><g fill="#ffffff" fill-opacity="1" id="svg_44" class="" transform="translate(2.1052629947662354,-1.0526314973831177) translate(-61.57894515991211,-152.10525512695312) "><g id="svg_45"><g id="svg_46"><path d="M307.2539367675781,189.71873474121094 C307.2539367675781,189.76170374121094 307.2226867675781,190.26170374121094 307.1601867675781,191.21873474121094 L294.5195617675781,191.21873474121094 C294.7773747675781,192.12498474121094 295.2773747675781,192.82029674121094 296.0195617675781,193.29685974121094 C296.75784276757815,193.77732874121094 297.67971776757815,194.01560974121094 298.7851867675781,194.01560974121094 C299.61721776757815,194.01560974121094 300.33596776757815,193.90232874121094 300.9414367675781,193.67185974121094 C301.55471776757815,193.43357874121094 302.1758117675781,193.04295374121094 302.8008117675781,192.49998474121094 L306.0039367675781,195.84373474121094 C304.3164367675781,197.71873474121094 301.8476867675781,198.65623474121094 298.5976867675781,198.65623474121094 C296.5664367675781,198.65623474121094 294.7773747675781,198.27732854121095 293.2383117675781,197.51560974121094 C291.7070617675781,196.74607874121094 290.5117487675781,195.67967274121094 289.6601867675781,194.31248474121094 C288.8164367675781,192.93748474121094 288.3945617675781,191.38670374121094 288.3945617675781,189.65623474121094 C288.3945617675781,187.94920374121094 288.8047177675781,186.41795374121094 289.6289367675781,185.06248474121094 C290.4492487675781,183.69920374121094 291.5859677675781,182.63279674121094 293.0351867675781,181.85935974121094 C294.4922177675781,181.08982874121094 296.13284276757815,180.70310974121094 297.9570617675781,180.70310974121094 C299.6836247675781,180.70310974121094 301.2539367675781,181.06248474121094 302.6601867675781,181.78123474121094 C304.0742487675781,182.49998474121094 305.19534276757815,183.53904674121094 306.0195617675781,184.89060974121094 C306.8398747675781,186.24607874121094 307.2539367675781,187.85545374121094 307.2539367675781,189.71873474121094 zM297.9883117675781,185.03123474121094 C297.0508117675781,185.03123474121094 296.2617487675781,185.30467274121094 295.6289367675781,185.84373474121094 C295.0039367675781,186.37498474121094 294.6015927675781,187.10154674121094 294.4258117675781,188.01560974121094 L301.5508117675781,188.01560974121094 C301.3711247675781,187.10154674121094 300.9648747675781,186.37498474121094 300.3320617675781,185.84373474121094 C299.7070617675781,185.30467274121094 298.9258117675781,185.03123474121094 297.9883117675781,185.03123474121094 zM297.9883117675781,185.03123474121094 " id="svg_47"/></g></g></g></g></svg>